<?xml version="1.0" encoding="UTF-8" standalone="no"?>
<svg xmlns:dc="http://purl.org/dc/elements/1.1/" xmlns:cc="http://creativecommons.org/ns#" xmlns:rdf="http://www.w3.org/1999/02/22-rdf-syntax-ns#" xmlns:svg="http://www.w3.org/2000/svg" xmlns="http://www.w3.org/2000/svg" xmlns:sodipodi="http://sodipodi.sourceforge.net/DTD/sodipodi-0.dtd" xmlns:inkscape="http://www.inkscape.org/namespaces/inkscape" width="420" height="420" viewBox="0 0 111.125 111.12501" version="1.1" id="svg8" inkscape:version="1.0.2-2 (e86c870879, 2021-01-15)" sodipodi:docname="Hiragana letter Yu.svg">
  <defs id="defs2"/>
  <sodipodi:namedview id="base" pagecolor="#ffffff" bordercolor="#666666" borderopacity="1.0" inkscape:pageopacity="0.0" inkscape:pageshadow="2" inkscape:zoom="0.98994949" inkscape:cx="345.76714" inkscape:cy="230.41447" inkscape:document-units="px" inkscape:current-layer="layer1" showgrid="false" units="px" showguides="true" inkscape:guide-bbox="true" inkscape:snap-center="true" inkscape:snap-object-midpoints="false" inkscape:window-width="1366" inkscape:window-height="705" inkscape:window-x="-8" inkscape:window-y="-8" inkscape:window-maximized="1" inkscape:document-rotation="0" inkscape:snap-bbox="true" inkscape:bbox-paths="true" inkscape:bbox-nodes="true"/>
  <metadata id="metadata5">
    <rdf:RDF>
      <cc:Work rdf:about="">
        <dc:format>image/svg+xml</dc:format>
        <dc:type rdf:resource="http://purl.org/dc/dcmitype/StillImage"/>
        <dc:title/>
      </cc:Work>
    </rdf:RDF>
  </metadata>
  <g inkscape:label="Layer 1" inkscape:groupmode="layer" id="layer1" transform="translate(0,-185.87499)">
    <path d="m 66.886633,266.7845 c 4.550819,-9.52497 5.503316,-20.95493 5.503316,-29.73907 0,-5.39748 -0.423332,-10.5833 -1.375829,-15.34579 9.842469,0.52917 20.214103,7.40831 20.214103,22.22493 0,15.76912 -11.64163,22.85993 -24.235757,22.85993 z M 43.709206,237.89209 c 0,-2.53999 0.211666,-5.18581 0.423332,-7.72581 6.667479,-4.76248 13.440791,-7.40831 20.849101,-8.25497 0.529165,4.23332 0.846664,9.41914 0.846664,15.76912 0,10.79496 -1.481662,20.42577 -5.397483,28.46907 -11.218298,-2.53999 -16.721614,-11.85329 -16.721614,-28.25741 z m 4.868318,-24.44742 c 2.645825,-5.39748 5.714982,-7.19664 8.149141,-7.19664 2.857491,0 5.926648,3.17499 7.619976,12.06496 -8.043308,0.9525 -14.81662,3.70415 -19.367439,6.87914 0.846664,-4.55082 2.11666,-8.6783 3.598322,-11.74746 z m -35.242389,-3.80999 c 2.11666,2.85749 5.503316,6.45582 5.503316,10.79497 0,7.30248 -4.762485,17.67411 -4.762485,27.72824 0,9.52497 3.17499,16.19245 5.397483,19.15578 1.375829,1.48166 2.751658,2.96332 4.339153,2.96332 2.010827,0 2.963324,-1.16416 2.963324,-2.85749 0,-2.53999 -1.481662,-4.23332 -1.481662,-7.40831 0,-5.60915 5.503316,-17.99161 14.393288,-26.24658 -0.211666,2.43416 -0.317499,4.97415 -0.317499,7.72581 0,15.87495 6.34998,26.66991 17.462445,30.4799 -4.656652,6.34998 -11.535797,11.2183 -21.1666,14.60495 l 1.05833,2.54 c 13.017459,-3.80999 20.531602,-8.57248 26.034918,-15.76912 1.269996,0.10583 2.539992,0.21166 3.809988,0.21166 19.261606,0 31.220735,-11.42996 31.220735,-28.78657 0,-15.87495 -11.747463,-26.77575 -27.622413,-26.77575 -2.328326,-9.10164 -6.667479,-15.45162 -12.911626,-15.45162 -3.704155,0 -8.149141,2.64583 -11.535797,8.88997 -2.328326,4.23332 -4.23332,10.15997 -5.397483,17.14495 -8.46664,6.98498 -14.81662,15.98078 -19.684938,26.98741 -1.269996,-1.90499 -2.010827,-5.82081 -2.010827,-9.10163 0,-5.07999 2.539992,-11.5358 4.868318,-17.77995 0.952497,-2.32832 2.539992,-5.50331 2.539992,-8.25497 0,-2.96333 -3.598322,-7.09081 -5.503316,-8.78414 -1.904994,-1.5875 -3.809988,-2.53999 -5.820815,-3.28082 z" style="font-style:normal;font-variant:normal;font-weight:normal;font-stretch:normal;font-size:105.833px;line-height:100%;font-family:'Noto Serif CJK JP';-inkscape-font-specification:'Noto Serif CJK JP';text-align:center;letter-spacing:0px;word-spacing:0px;text-anchor:middle;fill:#000000;fill-opacity:1;stroke:none;stroke-width:0.264583px;stroke-linecap:butt;stroke-linejoin:miter;stroke-opacity:1" id="path9"/>
  </g>
</svg>