<?xml version="1.0" encoding="UTF-8" standalone="no"?>
<svg xmlns:dc="http://purl.org/dc/elements/1.1/" xmlns:cc="http://creativecommons.org/ns#" xmlns:rdf="http://www.w3.org/1999/02/22-rdf-syntax-ns#" xmlns:svg="http://www.w3.org/2000/svg" xmlns="http://www.w3.org/2000/svg" xmlns:sodipodi="http://sodipodi.sourceforge.net/DTD/sodipodi-0.dtd" xmlns:inkscape="http://www.inkscape.org/namespaces/inkscape" width="420" height="420" viewBox="0 0 111.125 111.12501" version="1.1" id="svg8" inkscape:version="1.0.2-2 (e86c870879, 2021-01-15)" sodipodi:docname="Hiragana letter small Tu.svg">
  <defs id="defs2"/>
  <sodipodi:namedview id="base" pagecolor="#ffffff" bordercolor="#666666" borderopacity="1.0" inkscape:pageopacity="0.0" inkscape:pageshadow="2" inkscape:zoom="0.98994949" inkscape:cx="345.76714" inkscape:cy="230.41447" inkscape:document-units="px" inkscape:current-layer="layer1" showgrid="false" units="px" showguides="true" inkscape:guide-bbox="true" inkscape:snap-center="true" inkscape:snap-object-midpoints="false" inkscape:window-width="1366" inkscape:window-height="705" inkscape:window-x="-8" inkscape:window-y="-8" inkscape:window-maximized="1" inkscape:document-rotation="0" inkscape:snap-bbox="true" inkscape:bbox-paths="true" inkscape:bbox-nodes="true"/>
  <metadata id="metadata5">
    <rdf:RDF>
      <cc:Work rdf:about="">
        <dc:format>image/svg+xml</dc:format>
        <dc:type rdf:resource="http://purl.org/dc/dcmitype/StillImage"/>
        <dc:title/>
      </cc:Work>
    </rdf:RDF>
  </metadata>
  <g inkscape:label="Layer 1" inkscape:groupmode="layer" id="layer1" transform="translate(0,-185.87499)">
    <path d="m 21.378443,246.14707 c 0.105833,1.69333 0.317499,3.49249 1.05833,4.97415 1.375829,2.53999 5.079984,5.50331 7.937475,5.50331 2.434159,0 4.444986,-1.90499 10.054135,-5.60914 5.609149,-3.59833 16.509948,-11.95913 26.564083,-11.95913 9.948302,0 15.769117,5.92664 15.769117,14.60495 0,17.03911 -19.04994,23.60076 -40.322373,24.97659 l 0.211666,2.22249 c 12.276628,0.635 24.659089,-0.9525 32.279065,-4.76248 8.46664,-4.12749 14.81662,-10.79497 14.81662,-21.37827 0,-10.05413 -8.043308,-19.47327 -22.648262,-19.47327 -12.382461,0 -24.659089,7.30248 -32.80823,11.2183 -3.704155,1.90499 -4.974151,2.11666 -6.455813,2.11666 -1.799161,0 -3.809988,-1.27 -5.29165,-3.06916 z" style="font-style:normal;font-variant:normal;font-weight:normal;font-stretch:normal;font-size:105.833px;line-height:100%;font-family:'Noto Serif CJK JP';-inkscape-font-specification:'Noto Serif CJK JP';text-align:center;letter-spacing:0px;word-spacing:0px;text-anchor:middle;fill:#000000;fill-opacity:1;stroke:none;stroke-width:0.264583px;stroke-linecap:butt;stroke-linejoin:miter;stroke-opacity:1" id="path9"/>
  </g>
</svg>