<?xml version="1.0" encoding="UTF-8" standalone="no"?>
<!-- Created with Inkscape (http://www.inkscape.org/) -->
<svg xmlns:dc="http://purl.org/dc/elements/1.1/" xmlns:cc="http://creativecommons.org/ns#" xmlns:rdf="http://www.w3.org/1999/02/22-rdf-syntax-ns#" xmlns:svg="http://www.w3.org/2000/svg" xmlns="http://www.w3.org/2000/svg" xmlns:sodipodi="http://sodipodi.sourceforge.net/DTD/sodipodi-0.dtd" xmlns:inkscape="http://www.inkscape.org/namespaces/inkscape" width="500" height="500" viewBox="0 0 132.29167 132.29167" version="1.1" id="svg8" inkscape:version="0.92.4 (5da689c313, 2019-01-14)" sodipodi:docname="Japanese_Katakana_kyokashotai_BO.svg">
  <defs id="defs2"/>
  <sodipodi:namedview id="base" pagecolor="#ffffff" bordercolor="#666666" borderopacity="1.0" inkscape:pageopacity="0.0" inkscape:pageshadow="2" inkscape:zoom="0.9899495" inkscape:cx="206.07113" inkscape:cy="341.66919" inkscape:document-units="mm" inkscape:current-layer="text235" showgrid="false" units="px" inkscape:window-width="1440" inkscape:window-height="837" inkscape:window-x="-8" inkscape:window-y="-8" inkscape:window-maximized="1"/>
  <metadata id="metadata5">
    <rdf:RDF>
      <cc:Work rdf:about="">
        <dc:format>image/svg+xml</dc:format>
        <dc:type rdf:resource="http://purl.org/dc/dcmitype/StillImage"/>
        <dc:title/>
      </cc:Work>
    </rdf:RDF>
  </metadata>
  <g inkscape:label="Layer 1" inkscape:groupmode="layer" id="layer1" transform="translate(0,-164.70835)">
    <g aria-label="リ" style="font-style:normal;font-variant:normal;font-weight:normal;font-stretch:normal;font-size:25.39999962px;line-height:1.25;font-family:MHGKyokashotaiTHK;-inkscape-font-specification:MHGKyokashotaiTHK;letter-spacing:0px;word-spacing:0px;fill:#000000;fill-opacity:1;stroke:none;stroke-width:0.26458332" id="text12">
      <g aria-label="イ" style="font-style:normal;font-variant:normal;font-weight:normal;font-stretch:normal;font-size:25.39999962px;line-height:1.25;font-family:MHGKyokashotaiTHK;-inkscape-font-specification:MHGKyokashotaiTHK;letter-spacing:0px;word-spacing:0px;fill:#000000;fill-opacity:1;stroke:none;stroke-width:0.07000434" id="text20">
        <g aria-label="ウ" style="font-style:normal;font-variant:normal;font-weight:normal;font-stretch:normal;font-size:25.39999962px;line-height:1.25;font-family:MHGKyokashotaiTHK;-inkscape-font-specification:MHGKyokashotaiTHK;letter-spacing:0px;word-spacing:0px;fill:#000000;fill-opacity:1;stroke:none;stroke-width:0.01852198" id="text36">
          <g aria-label="エ" style="font-style:normal;font-variant:normal;font-weight:normal;font-stretch:normal;font-size:25.39999962px;line-height:1.25;font-family:MHGKyokashotaiTHK;-inkscape-font-specification:MHGKyokashotaiTHK;letter-spacing:0px;word-spacing:0px;fill:#000000;fill-opacity:1;stroke:none;stroke-width:0.00490061" id="text52">
            <g aria-label="オ" style="font-style:normal;font-variant:normal;font-weight:normal;font-stretch:normal;font-size:25.39999962px;line-height:1.25;font-family:MHGKyokashotaiTHK;-inkscape-font-specification:MHGKyokashotaiTHK;letter-spacing:0px;word-spacing:0px;fill:#000000;fill-opacity:1;stroke:none;stroke-width:0.00129662" id="text65">
              <g aria-label="カ" style="font-style:normal;font-variant:normal;font-weight:normal;font-stretch:normal;font-size:25.39999962px;line-height:1.25;font-family:MHGKyokashotaiTHK;-inkscape-font-specification:MHGKyokashotaiTHK;letter-spacing:0px;word-spacing:0px;fill:#000000;fill-opacity:1;stroke:none;stroke-width:0.00034306" id="text3785">
                <g aria-label="キ" style="font-style:normal;font-variant:normal;font-weight:normal;font-stretch:normal;font-size:25.39999962px;line-height:1.25;font-family:MHGKyokashotaiTHK;-inkscape-font-specification:MHGKyokashotaiTHK;letter-spacing:0px;word-spacing:0px;fill:#000000;fill-opacity:1;stroke:none;stroke-width:0.00009077" id="text25">
                  <g aria-label="ク" style="font-style:normal;font-variant:normal;font-weight:normal;font-stretch:normal;font-size:25.39999962px;line-height:1.25;font-family:MHGKyokashotaiTHK;-inkscape-font-specification:MHGKyokashotaiTHK;letter-spacing:0px;word-spacing:0px;fill:#000000;fill-opacity:1;stroke:none;stroke-width:0.00002402" id="text41">
                    <g aria-label="ケ" style="font-style:normal;font-variant:normal;font-weight:normal;font-stretch:normal;font-size:25.39999962px;line-height:1.25;font-family:MHGKyokashotaiTHK;-inkscape-font-specification:MHGKyokashotaiTHK;letter-spacing:0px;word-spacing:0px;fill:#000000;fill-opacity:1;stroke:none;stroke-width:0.00000636" id="text57" transform="translate(-35.678743,99.375527)">
                      <g aria-label="ガ" style="font-style:normal;font-variant:normal;font-weight:normal;font-stretch:normal;font-size:141.1111145px;line-height:1.25;font-family:MHGKyokashotaiTHK;-inkscape-font-specification:MHGKyokashotaiTHK;letter-spacing:0px;word-spacing:0px;fill:#000000;fill-opacity:1;stroke:none;stroke-width:0.00000168" id="text90" transform="translate(-58.409104,85.870703)">
                        <g aria-label="ギ" style="font-style:normal;font-variant:normal;font-weight:normal;font-stretch:normal;font-size:25.39999962px;line-height:1.25;font-family:MHGKyokashotaiTHK;-inkscape-font-specification:MHGKyokashotaiTHK;letter-spacing:0px;word-spacing:0px;fill:#000000;fill-opacity:1;stroke:none;stroke-width:0.00000044" id="text110" transform="translate(-44.156081,83.282783)">
                          <text xml:space="preserve" style="font-style:normal;font-variant:normal;font-weight:normal;font-stretch:normal;font-size:25.39999962px;line-height:1.25;font-family:MHGKyokashotaiTHK;-inkscape-font-specification:MHGKyokashotaiTHK;letter-spacing:0px;word-spacing:0px;fill:#000000;fill-opacity:1;stroke:none;stroke-width:0.00000012" x="166.30724" y="-90.731201" id="text220"><tspan sodipodi:role="line" id="tspan218" x="166.30724" y="-65.318748" style="stroke-width:0.00000012"/></text>
                          <g aria-label="ゼ" style="font-style:normal;font-variant:normal;font-weight:normal;font-stretch:normal;font-size:25.39999962px;line-height:1.25;font-family:MHGKyokashotaiTHK;-inkscape-font-specification:MHGKyokashotaiTHK;letter-spacing:0px;word-spacing:0px;fill:#000000;fill-opacity:1;stroke:none;stroke-width:0.00000012" id="text235">
                            <g aria-label="ボ" style="font-style:normal;font-variant:normal;font-weight:normal;font-stretch:normal;font-size:25.39999962px;line-height:1.25;font-family:MHGKyokashotaiTHK;-inkscape-font-specification:MHGKyokashotaiTHK;letter-spacing:0px;word-spacing:0px;fill:#000000;fill-opacity:1;stroke:none;stroke-width:0.00000003" id="text89" transform="translate(-45.935741,65.267053)">
                              <path d="m 300.85712,-144.07128 c 0,-3.38667 -0.98777,-5.92667 -2.82222,-7.76112 -2.25778,-1.83444 -6.06778,-3.38666 -11.57111,-4.93888 -1.41111,0 -1.69333,0.42333 -0.56444,1.12888 4.09222,2.25778 7.62,6.35 11.00666,12.7 0.56445,1.12889 1.55223,1.55223 2.25778,1.55223 1.12889,0 1.69333,-0.84667 1.69333,-2.68111 z m -8.89,7.19666 c 0,-3.38666 -0.84666,-5.92666 -2.68111,-7.76111 -2.25778,-1.83444 -6.06778,-3.52778 -11.57111,-4.93889 -1.55222,0 -1.69333,0.28222 -0.56444,1.12889 3.95111,2.11667 7.62,6.35 11.00666,12.7 0.70556,0.98778 1.41111,1.55222 2.11667,1.55222 1.12889,0 1.69333,-0.84666 1.69333,-2.68111 z m 1.69334,62.794448 c 0,-2.54 -0.56445,-4.938889 -1.69334,-7.196667 -1.41111,-2.963333 -3.81,-5.644444 -7.19666,-8.184444 -3.66889,-2.963334 -8.46667,-6.632223 -14.25223,-11.006667 -1.83444,-0.84667 -2.39888,-0.42333 -1.69333,0.987778 5.50333,6.632222 9.59556,11.571111 12.13556,14.957778 1.41111,1.834444 4.09222,5.785555 7.76111,12.135555 0.70555,1.411112 1.83444,2.116667 3.24555,2.116667 1.12889,-0.282222 1.69334,-1.552222 1.69334,-3.81 z m -8.89,-51.223338 c -3.66889,-2.25777 -7.05556,-3.66889 -10.44223,-4.51555 -1.41111,0.84666 -3.10444,1.41111 -4.93888,1.69333 l -19.89667,2.82222 c 0,-4.09222 0.42333,-8.46666 1.12889,-13.26444 0.42333,-2.54 0.70555,-4.65667 1.12889,-6.06778 0.28222,-1.12889 -0.14111,-2.11667 -1.69334,-3.24555 -2.96333,-2.11667 -5.50333,-3.66889 -7.62,-4.51556 -1.97555,-0.56444 -2.39889,-0.28222 -1.69333,1.12889 2.11667,1.55222 3.10444,3.95111 3.24555,7.19667 0.28223,5.50333 0.56445,12.13555 0.56445,19.89666 -12.41778,1.83445 -23.98889,3.95111 -34.71333,6.06778 -1.83445,0.42333 -4.51556,0.14111 -8.32556,-0.56444 -0.98778,0 -1.27,0.42333 -0.42333,0.98777 2.82222,2.68111 5.22111,4.51556 7.05555,5.64445 1.83445,-0.84667 5.22111,-1.69334 10.01889,-2.82222 6.63222,-1.55223 15.38111,-3.10445 26.38778,-4.93889 0,20.178886 -0.14111,38.241109 -0.56445,54.045554 -0.28222,2.116667 -1.27,3.245556 -2.68111,3.245556 -1.83444,0 -6.20889,-1.834445 -13.26444,-5.503334 -1.41111,-0.705556 -1.83445,-0.423333 -1.12889,1.128889 5.92667,4.374445 9.87778,7.62 12.13556,9.877778 1.83444,1.834444 3.38666,4.233333 4.37444,7.196667 1.12889,1.128889 1.97556,0.846667 2.82222,-0.564445 2.96334,-5.503333 4.37445,-9.877778 4.37445,-13.264444 -0.70556,-6.914445 -1.12889,-13.264445 -1.12889,-18.767779 v -37.958892 c 9.17222,-1.12889 16.08667,-1.69333 20.46111,-1.69333 4.37444,0 8.46667,0.42333 12.13556,1.12889 3.66888,0 4.51555,-1.41111 2.68111,-4.37445 z m -68.29778,28.64556 c 0,-1.552222 -0.56445,-1.693334 -1.69334,-0.564445 -2.54,6.632223 -5.36222,11.712223 -8.18444,15.381112 -2.96333,3.668889 -5.08,5.926667 -6.06778,6.632222 -0.84667,2.257778 -0.84667,4.656667 -0.56444,7.196667 0.42333,4.092222 1.97555,4.233333 4.93889,0.564445 4.79777,-5.926667 8.60777,-15.663334 11.57111,-29.210001 z" style="font-size:141.1111145px;stroke-width:0.00000003" id="path91" inkscape:connector-curvature="0"/>
                            </g>
                          </g>
                        </g>
                      </g>
                    </g>
                  </g>
                </g>
              </g>
            </g>
          </g>
        </g>
      </g>
    </g>
  </g>
</svg>