<?xml version="1.0" encoding="UTF-8" standalone="no"?>
<!-- Created with Inkscape (http://www.inkscape.org/) -->
<svg xmlns:dc="http://purl.org/dc/elements/1.1/" xmlns:cc="http://creativecommons.org/ns#" xmlns:rdf="http://www.w3.org/1999/02/22-rdf-syntax-ns#" xmlns:svg="http://www.w3.org/2000/svg" xmlns="http://www.w3.org/2000/svg" xmlns:sodipodi="http://sodipodi.sourceforge.net/DTD/sodipodi-0.dtd" xmlns:inkscape="http://www.inkscape.org/namespaces/inkscape" width="500" height="500" viewBox="0 0 132.29167 132.29167" version="1.1" id="svg8" inkscape:version="0.92.4 (5da689c313, 2019-01-14)" sodipodi:docname="Japanese_Katakana_kyokashotai_GE.svg">
  <defs id="defs2"/>
  <sodipodi:namedview id="base" pagecolor="#ffffff" bordercolor="#666666" borderopacity="1.0" inkscape:pageopacity="0.0" inkscape:pageshadow="2" inkscape:zoom="0.9899495" inkscape:cx="216.67629" inkscape:cy="484.10071" inkscape:document-units="mm" inkscape:current-layer="text110" showgrid="false" units="px" inkscape:window-width="1440" inkscape:window-height="837" inkscape:window-x="-8" inkscape:window-y="-8" inkscape:window-maximized="1"/>
  <metadata id="metadata5">
    <rdf:RDF>
      <cc:Work rdf:about="">
        <dc:format>image/svg+xml</dc:format>
        <dc:type rdf:resource="http://purl.org/dc/dcmitype/StillImage"/>
        <dc:title/>
      </cc:Work>
    </rdf:RDF>
  </metadata>
  <g inkscape:label="Layer 1" inkscape:groupmode="layer" id="layer1" transform="translate(0,-164.70835)">
    <g aria-label="リ" style="font-style:normal;font-variant:normal;font-weight:normal;font-stretch:normal;font-size:25.39999962px;line-height:1.25;font-family:MHGKyokashotaiTHK;-inkscape-font-specification:MHGKyokashotaiTHK;letter-spacing:0px;word-spacing:0px;fill:#000000;fill-opacity:1;stroke:none;stroke-width:0.26458332" id="text12">
      <g aria-label="イ" style="font-style:normal;font-variant:normal;font-weight:normal;font-stretch:normal;font-size:25.39999962px;line-height:1.25;font-family:MHGKyokashotaiTHK;-inkscape-font-specification:MHGKyokashotaiTHK;letter-spacing:0px;word-spacing:0px;fill:#000000;fill-opacity:1;stroke:none;stroke-width:0.07000434" id="text20">
        <g aria-label="ウ" style="font-style:normal;font-variant:normal;font-weight:normal;font-stretch:normal;font-size:25.39999962px;line-height:1.25;font-family:MHGKyokashotaiTHK;-inkscape-font-specification:MHGKyokashotaiTHK;letter-spacing:0px;word-spacing:0px;fill:#000000;fill-opacity:1;stroke:none;stroke-width:0.01852198" id="text36">
          <g aria-label="エ" style="font-style:normal;font-variant:normal;font-weight:normal;font-stretch:normal;font-size:25.39999962px;line-height:1.25;font-family:MHGKyokashotaiTHK;-inkscape-font-specification:MHGKyokashotaiTHK;letter-spacing:0px;word-spacing:0px;fill:#000000;fill-opacity:1;stroke:none;stroke-width:0.00490061" id="text52">
            <g aria-label="オ" style="font-style:normal;font-variant:normal;font-weight:normal;font-stretch:normal;font-size:25.39999962px;line-height:1.25;font-family:MHGKyokashotaiTHK;-inkscape-font-specification:MHGKyokashotaiTHK;letter-spacing:0px;word-spacing:0px;fill:#000000;fill-opacity:1;stroke:none;stroke-width:0.00129662" id="text65">
              <g aria-label="カ" style="font-style:normal;font-variant:normal;font-weight:normal;font-stretch:normal;font-size:25.39999962px;line-height:1.25;font-family:MHGKyokashotaiTHK;-inkscape-font-specification:MHGKyokashotaiTHK;letter-spacing:0px;word-spacing:0px;fill:#000000;fill-opacity:1;stroke:none;stroke-width:0.00034306" id="text3785">
                <g aria-label="キ" style="font-style:normal;font-variant:normal;font-weight:normal;font-stretch:normal;font-size:25.39999962px;line-height:1.25;font-family:MHGKyokashotaiTHK;-inkscape-font-specification:MHGKyokashotaiTHK;letter-spacing:0px;word-spacing:0px;fill:#000000;fill-opacity:1;stroke:none;stroke-width:0.00009077" id="text25">
                  <g aria-label="ク" style="font-style:normal;font-variant:normal;font-weight:normal;font-stretch:normal;font-size:25.39999962px;line-height:1.25;font-family:MHGKyokashotaiTHK;-inkscape-font-specification:MHGKyokashotaiTHK;letter-spacing:0px;word-spacing:0px;fill:#000000;fill-opacity:1;stroke:none;stroke-width:0.00002402" id="text41">
                    <g aria-label="ケ" style="font-style:normal;font-variant:normal;font-weight:normal;font-stretch:normal;font-size:25.39999962px;line-height:1.25;font-family:MHGKyokashotaiTHK;-inkscape-font-specification:MHGKyokashotaiTHK;letter-spacing:0px;word-spacing:0px;fill:#000000;fill-opacity:1;stroke:none;stroke-width:0.00000636" id="text57" transform="translate(-35.678743,99.375527)">
                      <g aria-label="ガ" style="font-style:normal;font-variant:normal;font-weight:normal;font-stretch:normal;font-size:141.1111145px;line-height:1.25;font-family:MHGKyokashotaiTHK;-inkscape-font-specification:MHGKyokashotaiTHK;letter-spacing:0px;word-spacing:0px;fill:#000000;fill-opacity:1;stroke:none;stroke-width:0.00000168" id="text90" transform="translate(-58.409104,85.870703)">
                        <g aria-label="ギ" style="font-style:normal;font-variant:normal;font-weight:normal;font-stretch:normal;font-size:25.39999962px;line-height:1.25;font-family:MHGKyokashotaiTHK;-inkscape-font-specification:MHGKyokashotaiTHK;letter-spacing:0px;word-spacing:0px;fill:#000000;fill-opacity:1;stroke:none;stroke-width:0.00000044" id="text110" transform="translate(-44.156081,83.282783)">
                          <g aria-label="ゲ" style="font-style:normal;font-variant:normal;font-weight:normal;font-stretch:normal;font-size:25.39999962px;line-height:1.25;font-family:MHGKyokashotaiTHK;-inkscape-font-specification:MHGKyokashotaiTHK;letter-spacing:0px;word-spacing:0px;fill:#000000;fill-opacity:1;stroke:none;stroke-width:0.00000012" id="text143" transform="translate(-61.13551,80.64291)">
                            <path d="m 320.31828,-158.6814 c 0,-3.38666 -0.98778,-5.92666 -2.82222,-7.76111 -2.25778,-1.83444 -6.06778,-3.52777 -11.57111,-4.93889 -1.41111,0 -1.69334,0.28223 -0.56445,1.12889 4.09222,2.11667 7.62,6.35 11.00667,12.55889 0.56444,1.12889 1.55222,1.69334 2.25778,1.69334 1.12889,0 1.69333,-0.84667 1.69333,-2.68112 z m -10.58333,7.05556 c 0,-3.24556 -0.84667,-5.78556 -2.68111,-7.62 -2.25778,-1.83444 -6.06778,-3.52778 -11.57112,-4.93889 -1.55222,0 -1.69333,0.28222 -0.56444,0.98778 3.95111,2.25778 7.62,6.49111 11.00667,12.7 0.56444,1.12889 1.41111,1.69333 2.25777,1.69333 0.98778,0 1.55223,-0.98777 1.55223,-2.82222 z m 0,7.19667 c -3.66889,-1.41111 -7.19667,-2.54 -10.44223,-3.24556 -1.41111,0 -2.68111,0.56445 -3.81,1.69334 -17.35666,3.95111 -35.13666,7.90222 -53.48111,11.57111 -1.83444,0.42333 -4.09222,0 -6.63222,-1.12889 4.09222,-5.22111 8.04333,-11.99445 12.13556,-20.46111 2.25777,-1.41112 2.96333,-2.68112 2.11666,-3.81 -2.54,-4.09223 -5.50333,-6.77334 -8.74889,-8.32556 -1.83444,-0.28222 -2.39889,0.14111 -1.69333,1.12889 1.41111,1.83444 2.25778,3.52778 2.25778,4.93889 0,4.09222 -2.96334,11.28889 -8.89,21.59 -6.06778,10.58333 -13.40556,19.47333 -21.44889,26.38778 -0.70556,1.41111 -0.42334,1.83444 1.12889,1.12889 4.37444,-2.96334 8.04333,-5.92667 11.00666,-8.89 3.24556,-3.24556 6.77334,-7.05556 10.44223,-11.57112 4.09222,2.25778 7.90222,2.82223 11.57111,2.25778 5.22111,-0.84666 11.57111,-1.83444 19.33222,-3.24555 1.83444,0.70555 2.96333,2.82222 2.82222,6.49111 -0.14111,7.47889 -5.22111,18.48555 -14.39333,33.16111 -5.50333,8.748889 -13.54667,17.921111 -24.27111,27.516667 -1.12889,1.834444 -0.70556,2.398889 1.12889,1.693333 11.71222,-8.043333 20.46111,-15.804444 25.82333,-23.142222 6.35,-8.466667 11.99444,-18.767778 17.21556,-30.903338 0.70555,-1.83444 1.55222,-4.23333 2.68111,-7.19666 0,-1.83445 -2.39889,-4.51556 -7.19667,-8.18445 4.09222,-0.84666 10.72444,-1.97555 19.89667,-3.38666 9.59555,-1.41112 16.22778,-1.97556 19.89666,-1.69334 3.24556,-0.28222 3.81,-1.83444 1.55223,-4.37444 z" style="font-size:141.1111145px;stroke-width:0.00000012" id="path145" inkscape:connector-curvature="0"/>
                          </g>
                        </g>
                      </g>
                    </g>
                  </g>
                </g>
              </g>
            </g>
          </g>
        </g>
      </g>
    </g>
  </g>
</svg>