<?xml version="1.0" encoding="UTF-8" standalone="no"?>
<!-- Created with Inkscape (http://www.inkscape.org/) -->
<svg xmlns:dc="http://purl.org/dc/elements/1.1/" xmlns:cc="http://creativecommons.org/ns#" xmlns:rdf="http://www.w3.org/1999/02/22-rdf-syntax-ns#" xmlns:svg="http://www.w3.org/2000/svg" xmlns="http://www.w3.org/2000/svg" xmlns:sodipodi="http://sodipodi.sourceforge.net/DTD/sodipodi-0.dtd" xmlns:inkscape="http://www.inkscape.org/namespaces/inkscape" width="500" height="500" viewBox="0 0 132.29167 132.29167" version="1.1" id="svg8" inkscape:version="0.92.4 (5da689c313, 2019-01-14)" sodipodi:docname="Japanese_Katakana_kyokashotai_ZE.svg">
  <defs id="defs2"/>
  <sodipodi:namedview id="base" pagecolor="#ffffff" bordercolor="#666666" borderopacity="1.0" inkscape:pageopacity="0.0" inkscape:pageshadow="2" inkscape:zoom="0.9899495" inkscape:cx="216.67629" inkscape:cy="360.8621" inkscape:document-units="mm" inkscape:current-layer="text235" showgrid="false" units="px" inkscape:window-width="1440" inkscape:window-height="837" inkscape:window-x="-8" inkscape:window-y="-8" inkscape:window-maximized="1"/>
  <metadata id="metadata5">
    <rdf:RDF>
      <cc:Work rdf:about="">
        <dc:format>image/svg+xml</dc:format>
        <dc:type rdf:resource="http://purl.org/dc/dcmitype/StillImage"/>
        <dc:title/>
      </cc:Work>
    </rdf:RDF>
  </metadata>
  <g inkscape:label="Layer 1" inkscape:groupmode="layer" id="layer1" transform="translate(0,-164.70835)">
    <g aria-label="リ" style="font-style:normal;font-variant:normal;font-weight:normal;font-stretch:normal;font-size:25.39999962px;line-height:1.25;font-family:MHGKyokashotaiTHK;-inkscape-font-specification:MHGKyokashotaiTHK;letter-spacing:0px;word-spacing:0px;fill:#000000;fill-opacity:1;stroke:none;stroke-width:0.26458332" id="text12">
      <g aria-label="イ" style="font-style:normal;font-variant:normal;font-weight:normal;font-stretch:normal;font-size:25.39999962px;line-height:1.25;font-family:MHGKyokashotaiTHK;-inkscape-font-specification:MHGKyokashotaiTHK;letter-spacing:0px;word-spacing:0px;fill:#000000;fill-opacity:1;stroke:none;stroke-width:0.07000434" id="text20">
        <g aria-label="ウ" style="font-style:normal;font-variant:normal;font-weight:normal;font-stretch:normal;font-size:25.39999962px;line-height:1.25;font-family:MHGKyokashotaiTHK;-inkscape-font-specification:MHGKyokashotaiTHK;letter-spacing:0px;word-spacing:0px;fill:#000000;fill-opacity:1;stroke:none;stroke-width:0.01852198" id="text36">
          <g aria-label="エ" style="font-style:normal;font-variant:normal;font-weight:normal;font-stretch:normal;font-size:25.39999962px;line-height:1.25;font-family:MHGKyokashotaiTHK;-inkscape-font-specification:MHGKyokashotaiTHK;letter-spacing:0px;word-spacing:0px;fill:#000000;fill-opacity:1;stroke:none;stroke-width:0.00490061" id="text52">
            <g aria-label="オ" style="font-style:normal;font-variant:normal;font-weight:normal;font-stretch:normal;font-size:25.39999962px;line-height:1.25;font-family:MHGKyokashotaiTHK;-inkscape-font-specification:MHGKyokashotaiTHK;letter-spacing:0px;word-spacing:0px;fill:#000000;fill-opacity:1;stroke:none;stroke-width:0.00129662" id="text65">
              <g aria-label="カ" style="font-style:normal;font-variant:normal;font-weight:normal;font-stretch:normal;font-size:25.39999962px;line-height:1.25;font-family:MHGKyokashotaiTHK;-inkscape-font-specification:MHGKyokashotaiTHK;letter-spacing:0px;word-spacing:0px;fill:#000000;fill-opacity:1;stroke:none;stroke-width:0.00034306" id="text3785">
                <g aria-label="キ" style="font-style:normal;font-variant:normal;font-weight:normal;font-stretch:normal;font-size:25.39999962px;line-height:1.25;font-family:MHGKyokashotaiTHK;-inkscape-font-specification:MHGKyokashotaiTHK;letter-spacing:0px;word-spacing:0px;fill:#000000;fill-opacity:1;stroke:none;stroke-width:0.00009077" id="text25">
                  <g aria-label="ク" style="font-style:normal;font-variant:normal;font-weight:normal;font-stretch:normal;font-size:25.39999962px;line-height:1.25;font-family:MHGKyokashotaiTHK;-inkscape-font-specification:MHGKyokashotaiTHK;letter-spacing:0px;word-spacing:0px;fill:#000000;fill-opacity:1;stroke:none;stroke-width:0.00002402" id="text41">
                    <g aria-label="ケ" style="font-style:normal;font-variant:normal;font-weight:normal;font-stretch:normal;font-size:25.39999962px;line-height:1.25;font-family:MHGKyokashotaiTHK;-inkscape-font-specification:MHGKyokashotaiTHK;letter-spacing:0px;word-spacing:0px;fill:#000000;fill-opacity:1;stroke:none;stroke-width:0.00000636" id="text57" transform="translate(-35.678743,99.375527)">
                      <g aria-label="ガ" style="font-style:normal;font-variant:normal;font-weight:normal;font-stretch:normal;font-size:141.1111145px;line-height:1.25;font-family:MHGKyokashotaiTHK;-inkscape-font-specification:MHGKyokashotaiTHK;letter-spacing:0px;word-spacing:0px;fill:#000000;fill-opacity:1;stroke:none;stroke-width:0.00000168" id="text90" transform="translate(-58.409104,85.870703)">
                        <g aria-label="ギ" style="font-style:normal;font-variant:normal;font-weight:normal;font-stretch:normal;font-size:25.39999962px;line-height:1.25;font-family:MHGKyokashotaiTHK;-inkscape-font-specification:MHGKyokashotaiTHK;letter-spacing:0px;word-spacing:0px;fill:#000000;fill-opacity:1;stroke:none;stroke-width:0.00000044" id="text110" transform="translate(-44.156081,83.282783)">
                          <text xml:space="preserve" style="font-style:normal;font-variant:normal;font-weight:normal;font-stretch:normal;font-size:25.39999962px;line-height:1.25;font-family:MHGKyokashotaiTHK;-inkscape-font-specification:MHGKyokashotaiTHK;letter-spacing:0px;word-spacing:0px;fill:#000000;fill-opacity:1;stroke:none;stroke-width:0.00000012" x="166.30724" y="-90.731201" id="text220"><tspan sodipodi:role="line" id="tspan218" x="166.30724" y="-65.318748" style="stroke-width:0.00000012"/></text>
                          <g aria-label="ゼ" style="font-style:normal;font-variant:normal;font-weight:normal;font-stretch:normal;font-size:25.39999962px;line-height:1.25;font-family:MHGKyokashotaiTHK;-inkscape-font-specification:MHGKyokashotaiTHK;letter-spacing:0px;word-spacing:0px;fill:#000000;fill-opacity:1;stroke:none;stroke-width:0.00000012" id="text235">
                            <path d="m 260.04239,-73.517051 c 0,-3.24556 -0.98778,-5.92667 -2.82222,-7.76111 -2.25778,-1.83445 -6.06778,-3.38667 -11.57111,-4.93889 -1.41111,0 -1.69334,0.42333 -0.56445,1.12889 4.09222,2.25777 7.62,6.49111 11.00667,12.7 0.56444,1.12888 1.55222,1.69333 2.25778,1.69333 1.12889,0 1.69333,-0.98778 1.69333,-2.82222 z m -8.89,8.89 c 0,-3.38667 -0.84667,-5.92667 -2.68111,-7.76111 -2.25778,-1.83445 -6.06778,-3.52778 -11.57111,-4.93889 -1.55222,0 -1.69334,0.28222 -0.56445,1.12889 3.95111,2.11666 7.62,6.35 11.00667,12.55888 0.70556,1.12889 1.41111,1.69334 2.11667,1.69334 1.12889,0 1.69333,-0.84667 1.69333,-2.68111 z m -1.12889,15.94555 -10.44222,-7.19666 c -0.70556,-0.28223 -1.97556,0.42333 -3.81,2.25777 -19.47333,5.50334 -33.30222,9.313337 -41.34556,11.571115 l 1.69334,-23.706665 c 0.14111,-1.12889 0.28222,-2.25778 0.98777,-3.38667 0.84667,-0.70555 -1.27,-2.39889 -6.06777,-4.93889 -2.11667,-1.12889 -3.95112,-1.69333 -5.50334,-1.69333 -1.41111,0 -1.55222,0.56444 -0.56444,1.69333 2.25778,1.55222 3.38666,3.38667 3.38666,5.50334 l -0.56444,28.645552 c -9.59556,2.963333 -18.62667,5.785555 -27.09333,8.325556 -2.54,0.705555 -4.37445,1.128888 -5.50334,1.128888 -1.41111,0 -3.24555,-0.141111 -5.50333,-0.564444 -0.98778,0 -1.27,0.423333 -0.56445,1.128889 4.51556,4.092222 7.47889,6.067778 8.89,6.067778 1.12889,-0.846667 2.54,-1.552222 4.37445,-2.257778 9.17222,-3.386667 17.63889,-6.208889 25.4,-8.748889 v 13.123334 c 0,13.2644438 1.69333,21.58999983 4.93889,24.8355558 5.22111,5.221111 14.53444,7.7611112 28.08111,7.7611112 3.66889,0 8.89,-0.282222 15.52222,-0.564444 4.37445,-0.7055562 5.22111,-2.3988892 2.11667,-4.3744452 -2.82222,-1.975556 -5.78556,-2.822222 -8.74889,-2.822222 -3.38667,1.128889 -8.46667,1.693333 -15.52222,1.693333 -8.32556,0 -14.11111,-1.552222 -17.07445,-4.37444397 -2.96333,-2.96333403 -4.09222,-9.03111203 -3.81,-18.20333383 l 0.56445,-18.767778 c 15.38111,-5.221112 29.77444,-9.172219 43.03889,-12.135559 0.98778,0 1.27,0.70556 0.42333,2.25778 -4.37444,6.20889 -11.99444,14.393334 -23.14222,24.694446 -0.70556,1.552222 -0.28222,1.834444 1.12889,1.128888 8.89,-5.503333 16.51,-11.147778 23.14222,-17.074444 2.96333,-2.54 5.92667,-5.080001 8.89,-7.76111 2.96333,-0.98778 3.81,-2.11667 2.68111,-3.24556 z" style="font-size:141.1111145px;stroke-width:0.00000012" id="path237" inkscape:connector-curvature="0"/>
                          </g>
                        </g>
                      </g>
                    </g>
                  </g>
                </g>
              </g>
            </g>
          </g>
        </g>
      </g>
    </g>
  </g>
</svg>