<?xml version="1.0" encoding="UTF-8" standalone="no"?>
<!-- Created with Inkscape (http://www.inkscape.org/) -->
<svg xmlns:dc="http://purl.org/dc/elements/1.1/" xmlns:cc="http://creativecommons.org/ns#" xmlns:rdf="http://www.w3.org/1999/02/22-rdf-syntax-ns#" xmlns:svg="http://www.w3.org/2000/svg" xmlns="http://www.w3.org/2000/svg" xmlns:sodipodi="http://sodipodi.sourceforge.net/DTD/sodipodi-0.dtd" xmlns:inkscape="http://www.inkscape.org/namespaces/inkscape" width="500" height="500" viewBox="0 0 132.29167 132.29167" version="1.1" id="svg8" inkscape:version="0.92.4 (5da689c313, 2019-01-14)" sodipodi:docname="Japanese_Katakana_kyokashotai_PI.svg">
  <defs id="defs2"/>
  <sodipodi:namedview id="base" pagecolor="#ffffff" bordercolor="#666666" borderopacity="1.0" inkscape:pageopacity="0.0" inkscape:pageshadow="2" inkscape:zoom="0.9899495" inkscape:cx="206.07113" inkscape:cy="256.81638" inkscape:document-units="mm" inkscape:current-layer="text235" showgrid="false" units="px" inkscape:window-width="1440" inkscape:window-height="837" inkscape:window-x="-8" inkscape:window-y="-8" inkscape:window-maximized="1"/>
  <metadata id="metadata5">
    <rdf:RDF>
      <cc:Work rdf:about="">
        <dc:format>image/svg+xml</dc:format>
        <dc:type rdf:resource="http://purl.org/dc/dcmitype/StillImage"/>
        <dc:title/>
      </cc:Work>
    </rdf:RDF>
  </metadata>
  <g inkscape:label="Layer 1" inkscape:groupmode="layer" id="layer1" transform="translate(0,-164.70835)">
    <g aria-label="リ" style="font-style:normal;font-variant:normal;font-weight:normal;font-stretch:normal;font-size:25.39999962px;line-height:1.25;font-family:MHGKyokashotaiTHK;-inkscape-font-specification:MHGKyokashotaiTHK;letter-spacing:0px;word-spacing:0px;fill:#000000;fill-opacity:1;stroke:none;stroke-width:0.26458332" id="text12">
      <g aria-label="イ" style="font-style:normal;font-variant:normal;font-weight:normal;font-stretch:normal;font-size:25.39999962px;line-height:1.25;font-family:MHGKyokashotaiTHK;-inkscape-font-specification:MHGKyokashotaiTHK;letter-spacing:0px;word-spacing:0px;fill:#000000;fill-opacity:1;stroke:none;stroke-width:0.07000434" id="text20">
        <g aria-label="ウ" style="font-style:normal;font-variant:normal;font-weight:normal;font-stretch:normal;font-size:25.39999962px;line-height:1.25;font-family:MHGKyokashotaiTHK;-inkscape-font-specification:MHGKyokashotaiTHK;letter-spacing:0px;word-spacing:0px;fill:#000000;fill-opacity:1;stroke:none;stroke-width:0.01852198" id="text36">
          <g aria-label="エ" style="font-style:normal;font-variant:normal;font-weight:normal;font-stretch:normal;font-size:25.39999962px;line-height:1.25;font-family:MHGKyokashotaiTHK;-inkscape-font-specification:MHGKyokashotaiTHK;letter-spacing:0px;word-spacing:0px;fill:#000000;fill-opacity:1;stroke:none;stroke-width:0.00490061" id="text52">
            <g aria-label="オ" style="font-style:normal;font-variant:normal;font-weight:normal;font-stretch:normal;font-size:25.39999962px;line-height:1.25;font-family:MHGKyokashotaiTHK;-inkscape-font-specification:MHGKyokashotaiTHK;letter-spacing:0px;word-spacing:0px;fill:#000000;fill-opacity:1;stroke:none;stroke-width:0.00129662" id="text65">
              <g aria-label="カ" style="font-style:normal;font-variant:normal;font-weight:normal;font-stretch:normal;font-size:25.39999962px;line-height:1.25;font-family:MHGKyokashotaiTHK;-inkscape-font-specification:MHGKyokashotaiTHK;letter-spacing:0px;word-spacing:0px;fill:#000000;fill-opacity:1;stroke:none;stroke-width:0.00034306" id="text3785">
                <g aria-label="キ" style="font-style:normal;font-variant:normal;font-weight:normal;font-stretch:normal;font-size:25.39999962px;line-height:1.25;font-family:MHGKyokashotaiTHK;-inkscape-font-specification:MHGKyokashotaiTHK;letter-spacing:0px;word-spacing:0px;fill:#000000;fill-opacity:1;stroke:none;stroke-width:0.00009077" id="text25">
                  <g aria-label="ク" style="font-style:normal;font-variant:normal;font-weight:normal;font-stretch:normal;font-size:25.39999962px;line-height:1.25;font-family:MHGKyokashotaiTHK;-inkscape-font-specification:MHGKyokashotaiTHK;letter-spacing:0px;word-spacing:0px;fill:#000000;fill-opacity:1;stroke:none;stroke-width:0.00002402" id="text41">
                    <g aria-label="ケ" style="font-style:normal;font-variant:normal;font-weight:normal;font-stretch:normal;font-size:25.39999962px;line-height:1.25;font-family:MHGKyokashotaiTHK;-inkscape-font-specification:MHGKyokashotaiTHK;letter-spacing:0px;word-spacing:0px;fill:#000000;fill-opacity:1;stroke:none;stroke-width:0.00000636" id="text57" transform="translate(-35.678743,99.375527)">
                      <g aria-label="ガ" style="font-style:normal;font-variant:normal;font-weight:normal;font-stretch:normal;font-size:141.1111145px;line-height:1.25;font-family:MHGKyokashotaiTHK;-inkscape-font-specification:MHGKyokashotaiTHK;letter-spacing:0px;word-spacing:0px;fill:#000000;fill-opacity:1;stroke:none;stroke-width:0.00000168" id="text90" transform="translate(-58.409104,85.870703)">
                        <g aria-label="ギ" style="font-style:normal;font-variant:normal;font-weight:normal;font-stretch:normal;font-size:25.39999962px;line-height:1.25;font-family:MHGKyokashotaiTHK;-inkscape-font-specification:MHGKyokashotaiTHK;letter-spacing:0px;word-spacing:0px;fill:#000000;fill-opacity:1;stroke:none;stroke-width:0.00000044" id="text110" transform="translate(-44.156081,83.282783)">
                          <text xml:space="preserve" style="font-style:normal;font-variant:normal;font-weight:normal;font-stretch:normal;font-size:25.39999962px;line-height:1.25;font-family:MHGKyokashotaiTHK;-inkscape-font-specification:MHGKyokashotaiTHK;letter-spacing:0px;word-spacing:0px;fill:#000000;fill-opacity:1;stroke:none;stroke-width:0.00000012" x="166.30724" y="-90.731201" id="text220"><tspan sodipodi:role="line" id="tspan218" x="166.30724" y="-65.318748" style="stroke-width:0.00000012"/></text>
                          <g aria-label="ゼ" style="font-style:normal;font-variant:normal;font-weight:normal;font-stretch:normal;font-size:25.39999962px;line-height:1.25;font-family:MHGKyokashotaiTHK;-inkscape-font-specification:MHGKyokashotaiTHK;letter-spacing:0px;word-spacing:0px;fill:#000000;fill-opacity:1;stroke:none;stroke-width:0.00000012" id="text235">
                            <g aria-label="ピ" style="font-style:normal;font-variant:normal;font-weight:normal;font-stretch:normal;font-size:25.39999962px;line-height:1.25;font-family:MHGKyokashotaiTHK;-inkscape-font-specification:MHGKyokashotaiTHK;letter-spacing:0px;word-spacing:0px;fill:#000000;fill-opacity:1;stroke:none;stroke-width:0.00000003" id="text103" transform="translate(-53.788074,88.115051)">
                              <path d="m 297.96668,-163.81932 c 0,-2.96334 -1.12889,-5.50334 -3.38667,-7.76112 -1.83444,-1.83444 -4.23333,-2.68111 -7.05556,-2.68111 -2.96333,0 -5.36222,0.84667 -7.19666,2.68111 -2.25778,2.25778 -3.38667,4.79778 -3.38667,7.76112 0,2.96333 1.12889,5.50333 3.38667,7.76111 1.83444,1.83444 4.23333,2.68111 7.19666,2.68111 2.82223,0 5.22112,-0.84667 7.05556,-2.68111 2.25778,-2.25778 3.38667,-4.79778 3.38667,-7.76111 z m -10.01889,80.43333 c -1.69334,-1.128889 -4.51556,-1.975555 -8.18445,-2.681111 -0.70555,0 -2.25777,0.282222 -4.37444,0.987778 -7.76111,1.128889 -13.26445,1.834444 -16.65111,2.257778 -3.24556,0.423333 -6.77334,0.564444 -10.44223,0.564444 -9.59555,0 -15.94555,-1.693333 -19.33222,-4.938889 -1.83444,-1.834444 -2.68111,-5.926667 -2.68111,-12.135556 0,-7.761114 0.14111,-16.227774 0.56445,-25.400004 10.30111,-1.41111 20.03777,-3.52777 29.21,-6.06777 9.17222,-2.54 17.07444,-5.50334 23.70666,-8.74889 1.12889,-1.12889 1.12889,-2.11667 0,-2.82223 -4.37444,-1.83444 -7.62,-2.39888 -9.45444,-1.69333 -1.83445,1.12889 -4.23333,2.54 -7.05556,3.95111 -10.01889,5.22111 -22.15444,9.31334 -36.40666,12.7 1.12888,-14.81666 1.97555,-26.10555 2.68111,-34.29 0.42333,-0.98778 0.84666,-2.11666 1.12889,-3.24555 0.42333,-1.83445 -3.24556,-4.65667 -11.00667,-8.32556 -1.41111,0 -1.69333,0.56444 -0.56445,1.69333 2.25778,1.83445 3.52778,4.23334 3.38667,7.19667 -0.98778,30.90333 -1.69333,52.49334 -1.69333,65.052224 0,6.914445 1.97555,12.417778 6.06778,16.510001 3.66888,3.668889 13.54666,5.503333 29.77444,5.503333 8.04333,0 14.67556,-0.282222 19.75556,-0.564444 4.09222,-0.141111 7.76111,-0.141111 11.14777,-1.128889 3.24556,-0.846667 3.38667,-2.54 0.42334,-4.374445 z m 7.19666,-80.43333 c 0,2.11666 -0.70555,3.95111 -2.11666,5.50333 -1.55222,1.41111 -3.38667,2.25778 -5.50334,2.25778 -2.25777,0 -4.09222,-0.84667 -5.64444,-2.25778 -1.41111,-1.55222 -2.11667,-3.38667 -2.11667,-5.50333 0,-2.25778 0.70556,-4.09223 2.11667,-5.50334 1.55222,-1.55222 3.38667,-2.25778 5.64444,-2.25778 2.11667,0 3.95112,0.70556 5.50334,2.25778 1.41111,1.41111 2.11666,3.24556 2.11666,5.50334 z" style="font-size:141.1111145px;stroke-width:0.00000003" id="path105" inkscape:connector-curvature="0"/>
                            </g>
                          </g>
                        </g>
                      </g>
                    </g>
                  </g>
                </g>
              </g>
            </g>
          </g>
        </g>
      </g>
    </g>
  </g>
</svg>