<?xml version="1.0" encoding="UTF-8" standalone="no"?>
<!-- Created with Inkscape (http://www.inkscape.org/) -->
<svg xmlns:dc="http://purl.org/dc/elements/1.1/" xmlns:cc="http://creativecommons.org/ns#" xmlns:rdf="http://www.w3.org/1999/02/22-rdf-syntax-ns#" xmlns:svg="http://www.w3.org/2000/svg" xmlns="http://www.w3.org/2000/svg" xmlns:sodipodi="http://sodipodi.sourceforge.net/DTD/sodipodi-0.dtd" xmlns:inkscape="http://www.inkscape.org/namespaces/inkscape" width="500" height="500" viewBox="0 0 132.29167 132.29167" version="1.1" id="svg8" inkscape:version="0.92.4 (5da689c313, 2019-01-14)" sodipodi:docname="Japanese_Katakana_kyokashotai_DE.svg">
  <defs id="defs2"/>
  <sodipodi:namedview id="base" pagecolor="#ffffff" bordercolor="#666666" borderopacity="1.0" inkscape:pageopacity="0.0" inkscape:pageshadow="2" inkscape:zoom="0.9899495" inkscape:cx="344.46201" inkscape:cy="476.01948" inkscape:document-units="mm" inkscape:current-layer="text235" showgrid="false" units="px" inkscape:window-width="1440" inkscape:window-height="837" inkscape:window-x="-8" inkscape:window-y="-8" inkscape:window-maximized="1"/>
  <metadata id="metadata5">
    <rdf:RDF>
      <cc:Work rdf:about="">
        <dc:format>image/svg+xml</dc:format>
        <dc:type rdf:resource="http://purl.org/dc/dcmitype/StillImage"/>
        <dc:title/>
      </cc:Work>
    </rdf:RDF>
  </metadata>
  <g inkscape:label="Layer 1" inkscape:groupmode="layer" id="layer1" transform="translate(0,-164.70835)">
    <g aria-label="リ" style="font-style:normal;font-variant:normal;font-weight:normal;font-stretch:normal;font-size:25.39999962px;line-height:1.25;font-family:MHGKyokashotaiTHK;-inkscape-font-specification:MHGKyokashotaiTHK;letter-spacing:0px;word-spacing:0px;fill:#000000;fill-opacity:1;stroke:none;stroke-width:0.26458332" id="text12">
      <g aria-label="イ" style="font-style:normal;font-variant:normal;font-weight:normal;font-stretch:normal;font-size:25.39999962px;line-height:1.25;font-family:MHGKyokashotaiTHK;-inkscape-font-specification:MHGKyokashotaiTHK;letter-spacing:0px;word-spacing:0px;fill:#000000;fill-opacity:1;stroke:none;stroke-width:0.07000434" id="text20">
        <g aria-label="ウ" style="font-style:normal;font-variant:normal;font-weight:normal;font-stretch:normal;font-size:25.39999962px;line-height:1.25;font-family:MHGKyokashotaiTHK;-inkscape-font-specification:MHGKyokashotaiTHK;letter-spacing:0px;word-spacing:0px;fill:#000000;fill-opacity:1;stroke:none;stroke-width:0.01852198" id="text36">
          <g aria-label="エ" style="font-style:normal;font-variant:normal;font-weight:normal;font-stretch:normal;font-size:25.39999962px;line-height:1.25;font-family:MHGKyokashotaiTHK;-inkscape-font-specification:MHGKyokashotaiTHK;letter-spacing:0px;word-spacing:0px;fill:#000000;fill-opacity:1;stroke:none;stroke-width:0.00490061" id="text52">
            <g aria-label="オ" style="font-style:normal;font-variant:normal;font-weight:normal;font-stretch:normal;font-size:25.39999962px;line-height:1.25;font-family:MHGKyokashotaiTHK;-inkscape-font-specification:MHGKyokashotaiTHK;letter-spacing:0px;word-spacing:0px;fill:#000000;fill-opacity:1;stroke:none;stroke-width:0.00129662" id="text65">
              <g aria-label="カ" style="font-style:normal;font-variant:normal;font-weight:normal;font-stretch:normal;font-size:25.39999962px;line-height:1.25;font-family:MHGKyokashotaiTHK;-inkscape-font-specification:MHGKyokashotaiTHK;letter-spacing:0px;word-spacing:0px;fill:#000000;fill-opacity:1;stroke:none;stroke-width:0.00034306" id="text3785">
                <g aria-label="キ" style="font-style:normal;font-variant:normal;font-weight:normal;font-stretch:normal;font-size:25.39999962px;line-height:1.25;font-family:MHGKyokashotaiTHK;-inkscape-font-specification:MHGKyokashotaiTHK;letter-spacing:0px;word-spacing:0px;fill:#000000;fill-opacity:1;stroke:none;stroke-width:0.00009077" id="text25">
                  <g aria-label="ク" style="font-style:normal;font-variant:normal;font-weight:normal;font-stretch:normal;font-size:25.39999962px;line-height:1.25;font-family:MHGKyokashotaiTHK;-inkscape-font-specification:MHGKyokashotaiTHK;letter-spacing:0px;word-spacing:0px;fill:#000000;fill-opacity:1;stroke:none;stroke-width:0.00002402" id="text41">
                    <g aria-label="ケ" style="font-style:normal;font-variant:normal;font-weight:normal;font-stretch:normal;font-size:25.39999962px;line-height:1.25;font-family:MHGKyokashotaiTHK;-inkscape-font-specification:MHGKyokashotaiTHK;letter-spacing:0px;word-spacing:0px;fill:#000000;fill-opacity:1;stroke:none;stroke-width:0.00000636" id="text57" transform="translate(-35.678743,99.375527)">
                      <g aria-label="ガ" style="font-style:normal;font-variant:normal;font-weight:normal;font-stretch:normal;font-size:141.1111145px;line-height:1.25;font-family:MHGKyokashotaiTHK;-inkscape-font-specification:MHGKyokashotaiTHK;letter-spacing:0px;word-spacing:0px;fill:#000000;fill-opacity:1;stroke:none;stroke-width:0.00000168" id="text90" transform="translate(-58.409104,85.870703)">
                        <g aria-label="ギ" style="font-style:normal;font-variant:normal;font-weight:normal;font-stretch:normal;font-size:25.39999962px;line-height:1.25;font-family:MHGKyokashotaiTHK;-inkscape-font-specification:MHGKyokashotaiTHK;letter-spacing:0px;word-spacing:0px;fill:#000000;fill-opacity:1;stroke:none;stroke-width:0.00000044" id="text110" transform="translate(-44.156081,83.282783)">
                          <text xml:space="preserve" style="font-style:normal;font-variant:normal;font-weight:normal;font-stretch:normal;font-size:25.39999962px;line-height:1.25;font-family:MHGKyokashotaiTHK;-inkscape-font-specification:MHGKyokashotaiTHK;letter-spacing:0px;word-spacing:0px;fill:#000000;fill-opacity:1;stroke:none;stroke-width:0.00000012" x="166.30724" y="-90.731201" id="text220"><tspan sodipodi:role="line" id="tspan218" x="166.30724" y="-65.318748" style="stroke-width:0.00000012"/></text>
                          <g aria-label="ゼ" style="font-style:normal;font-variant:normal;font-weight:normal;font-stretch:normal;font-size:25.39999962px;line-height:1.25;font-family:MHGKyokashotaiTHK;-inkscape-font-specification:MHGKyokashotaiTHK;letter-spacing:0px;word-spacing:0px;fill:#000000;fill-opacity:1;stroke:none;stroke-width:0.00000012" id="text235">
                            <g aria-label="デ" style="font-style:normal;font-variant:normal;font-weight:normal;font-stretch:normal;font-size:25.39999962px;line-height:1.25;font-family:MHGKyokashotaiTHK;-inkscape-font-specification:MHGKyokashotaiTHK;letter-spacing:0px;word-spacing:0px;fill:#000000;fill-opacity:1;stroke:none;stroke-width:0.00000003" id="text308" transform="translate(-43.041139,76.923125)">
                              <path d="m 301.84678,-154.99101 c 0,-3.24556 -0.98778,-5.78556 -2.82223,-7.62 -2.25777,-1.83445 -6.06777,-3.52778 -11.57111,-4.93889 -1.41111,0 -1.69333,0.28222 -0.56444,0.98778 4.09222,2.25777 7.62,6.49111 11.00667,12.7 0.56444,1.12889 1.55222,1.69333 2.25777,1.69333 1.12889,0 1.69334,-0.98778 1.69334,-2.82222 z m -8.89,8.89 c 0,-3.38667 -0.84667,-5.92667 -2.68111,-7.76111 -2.25778,-1.83445 -6.06778,-3.52778 -11.57112,-4.93889 -1.55222,0 -1.69333,0.42333 -0.56444,1.12889 3.95111,2.11666 7.62,6.35 11.00667,12.7 0.70555,1.12889 1.41111,1.55222 2.11666,1.55222 1.12889,0 1.69334,-0.84667 1.69334,-2.68111 z m -29.77445,-14.39334 c -2.11667,-1.12888 -5.08,-1.97555 -8.74889,-2.68111 -1.12889,0.70556 -2.25778,1.41111 -3.38666,2.11667 l -28.08112,6.63222 c -1.41111,0.28222 -3.24555,0.56445 -5.50333,0.56445 -2.25778,0 -4.23333,-0.28223 -6.06778,-1.12889 -1.41111,-0.28222 -1.83444,0 -1.12889,1.12889 3.38667,3.38666 5.78556,5.36222 7.19667,6.06777 1.12889,-0.28222 2.96333,-0.98777 5.50333,-1.69333 12.84112,-3.81 25.54112,-5.64444 38.1,-6.49111 3.66889,-0.28222 4.37445,-1.83444 2.11667,-4.51556 z m 24.83556,27.65778 c -4.09222,-2.25778 -8.04334,-3.66889 -12.13556,-4.51555 -2.25778,0.42333 -4.23333,1.12889 -6.06778,2.25777 -13.97,2.25778 -37.11222,6.49112 -69.42666,12.70001 -1.83445,0.42333 -3.95112,0.14111 -6.06778,-0.56445 -1.55222,0 -1.69334,0.56445 -0.56445,1.69333 2.96334,2.11667 5.92667,3.81 8.74889,4.93889 1.12889,0 2.96334,-0.70555 5.64445,-2.25777 3.95111,-1.41112 9.73666,-2.96334 17.07444,-4.37445 7.33778,-1.41111 12.13556,-2.25778 14.25222,-2.25778 1.83445,1.55223 2.96334,2.96334 3.38667,4.51556 0,6.91444 -2.68111,16.79222 -8.89,29.209999 -6.35,12.558889 -15.09889,21.872223 -25.4,28.081112 -0.98778,1.411111 -0.70556,1.975556 1.12889,1.693333 10.30111,-6.35 18.76778,-13.687778 25.4,-22.154445 5.92667,-7.62 10.72444,-19.473329 14.81667,-35.277779 0.28222,-1.12889 0.98777,-1.97555 1.69333,-2.68111 0.70556,-0.70556 0.56444,-1.55222 -0.56444,-2.25778 -1.83445,-0.70555 -3.95112,-1.41111 -6.63223,-2.25778 9.59556,-1.41111 18.20334,-2.54 25.96445,-3.24555 4.37444,-0.42333 10.16,0 17.07444,1.12889 2.96334,-0.70556 3.10445,-2.25778 0.56445,-4.37445 z" style="font-size:141.1111145px;stroke-width:0.00000003" id="path310" inkscape:connector-curvature="0"/>
                            </g>
                          </g>
                        </g>
                      </g>
                    </g>
                  </g>
                </g>
              </g>
            </g>
          </g>
        </g>
      </g>
    </g>
  </g>
</svg>