<?xml version="1.0" encoding="UTF-8" standalone="no"?>
<!-- Created with Inkscape (http://www.inkscape.org/) -->
<svg xmlns:dc="http://purl.org/dc/elements/1.1/" xmlns:cc="http://creativecommons.org/ns#" xmlns:rdf="http://www.w3.org/1999/02/22-rdf-syntax-ns#" xmlns:svg="http://www.w3.org/2000/svg" xmlns="http://www.w3.org/2000/svg" xmlns:sodipodi="http://sodipodi.sourceforge.net/DTD/sodipodi-0.dtd" xmlns:inkscape="http://www.inkscape.org/namespaces/inkscape" width="500" height="500" viewBox="0 0 132.29167 132.29167" version="1.1" id="svg8" inkscape:version="0.92.4 (5da689c313, 2019-01-14)" sodipodi:docname="Japanese_Katakana_kyokashotai_PO.svg">
  <defs id="defs2"/>
  <sodipodi:namedview id="base" pagecolor="#ffffff" bordercolor="#666666" borderopacity="1.0" inkscape:pageopacity="0.0" inkscape:pageshadow="2" inkscape:zoom="0.9899495" inkscape:cx="277.619" inkscape:cy="450.76566" inkscape:document-units="mm" inkscape:current-layer="text235" showgrid="false" units="px" inkscape:window-width="1440" inkscape:window-height="837" inkscape:window-x="-8" inkscape:window-y="-8" inkscape:window-maximized="1"/>
  <metadata id="metadata5">
    <rdf:RDF>
      <cc:Work rdf:about="">
        <dc:format>image/svg+xml</dc:format>
        <dc:type rdf:resource="http://purl.org/dc/dcmitype/StillImage"/>
        <dc:title/>
      </cc:Work>
    </rdf:RDF>
  </metadata>
  <g inkscape:label="Layer 1" inkscape:groupmode="layer" id="layer1" transform="translate(0,-164.70835)">
    <g aria-label="リ" style="font-style:normal;font-variant:normal;font-weight:normal;font-stretch:normal;font-size:25.39999962px;line-height:1.25;font-family:MHGKyokashotaiTHK;-inkscape-font-specification:MHGKyokashotaiTHK;letter-spacing:0px;word-spacing:0px;fill:#000000;fill-opacity:1;stroke:none;stroke-width:0.26458332" id="text12">
      <g aria-label="イ" style="font-style:normal;font-variant:normal;font-weight:normal;font-stretch:normal;font-size:25.39999962px;line-height:1.25;font-family:MHGKyokashotaiTHK;-inkscape-font-specification:MHGKyokashotaiTHK;letter-spacing:0px;word-spacing:0px;fill:#000000;fill-opacity:1;stroke:none;stroke-width:0.07000434" id="text20">
        <g aria-label="ウ" style="font-style:normal;font-variant:normal;font-weight:normal;font-stretch:normal;font-size:25.39999962px;line-height:1.25;font-family:MHGKyokashotaiTHK;-inkscape-font-specification:MHGKyokashotaiTHK;letter-spacing:0px;word-spacing:0px;fill:#000000;fill-opacity:1;stroke:none;stroke-width:0.01852198" id="text36">
          <g aria-label="エ" style="font-style:normal;font-variant:normal;font-weight:normal;font-stretch:normal;font-size:25.39999962px;line-height:1.25;font-family:MHGKyokashotaiTHK;-inkscape-font-specification:MHGKyokashotaiTHK;letter-spacing:0px;word-spacing:0px;fill:#000000;fill-opacity:1;stroke:none;stroke-width:0.00490061" id="text52">
            <g aria-label="オ" style="font-style:normal;font-variant:normal;font-weight:normal;font-stretch:normal;font-size:25.39999962px;line-height:1.25;font-family:MHGKyokashotaiTHK;-inkscape-font-specification:MHGKyokashotaiTHK;letter-spacing:0px;word-spacing:0px;fill:#000000;fill-opacity:1;stroke:none;stroke-width:0.00129662" id="text65">
              <g aria-label="カ" style="font-style:normal;font-variant:normal;font-weight:normal;font-stretch:normal;font-size:25.39999962px;line-height:1.25;font-family:MHGKyokashotaiTHK;-inkscape-font-specification:MHGKyokashotaiTHK;letter-spacing:0px;word-spacing:0px;fill:#000000;fill-opacity:1;stroke:none;stroke-width:0.00034306" id="text3785">
                <g aria-label="キ" style="font-style:normal;font-variant:normal;font-weight:normal;font-stretch:normal;font-size:25.39999962px;line-height:1.25;font-family:MHGKyokashotaiTHK;-inkscape-font-specification:MHGKyokashotaiTHK;letter-spacing:0px;word-spacing:0px;fill:#000000;fill-opacity:1;stroke:none;stroke-width:0.00009077" id="text25">
                  <g aria-label="ク" style="font-style:normal;font-variant:normal;font-weight:normal;font-stretch:normal;font-size:25.39999962px;line-height:1.25;font-family:MHGKyokashotaiTHK;-inkscape-font-specification:MHGKyokashotaiTHK;letter-spacing:0px;word-spacing:0px;fill:#000000;fill-opacity:1;stroke:none;stroke-width:0.00002402" id="text41">
                    <g aria-label="ケ" style="font-style:normal;font-variant:normal;font-weight:normal;font-stretch:normal;font-size:25.39999962px;line-height:1.25;font-family:MHGKyokashotaiTHK;-inkscape-font-specification:MHGKyokashotaiTHK;letter-spacing:0px;word-spacing:0px;fill:#000000;fill-opacity:1;stroke:none;stroke-width:0.00000636" id="text57" transform="translate(-35.678743,99.375527)">
                      <g aria-label="ガ" style="font-style:normal;font-variant:normal;font-weight:normal;font-stretch:normal;font-size:141.1111145px;line-height:1.25;font-family:MHGKyokashotaiTHK;-inkscape-font-specification:MHGKyokashotaiTHK;letter-spacing:0px;word-spacing:0px;fill:#000000;fill-opacity:1;stroke:none;stroke-width:0.00000168" id="text90" transform="translate(-58.409104,85.870703)">
                        <g aria-label="ギ" style="font-style:normal;font-variant:normal;font-weight:normal;font-stretch:normal;font-size:25.39999962px;line-height:1.25;font-family:MHGKyokashotaiTHK;-inkscape-font-specification:MHGKyokashotaiTHK;letter-spacing:0px;word-spacing:0px;fill:#000000;fill-opacity:1;stroke:none;stroke-width:0.00000044" id="text110" transform="translate(-44.156081,83.282783)">
                          <text xml:space="preserve" style="font-style:normal;font-variant:normal;font-weight:normal;font-stretch:normal;font-size:25.39999962px;line-height:1.25;font-family:MHGKyokashotaiTHK;-inkscape-font-specification:MHGKyokashotaiTHK;letter-spacing:0px;word-spacing:0px;fill:#000000;fill-opacity:1;stroke:none;stroke-width:0.00000012" x="166.30724" y="-90.731201" id="text220"><tspan sodipodi:role="line" id="tspan218" x="166.30724" y="-65.318748" style="stroke-width:0.00000012"/></text>
                          <g aria-label="ゼ" style="font-style:normal;font-variant:normal;font-weight:normal;font-stretch:normal;font-size:25.39999962px;line-height:1.25;font-family:MHGKyokashotaiTHK;-inkscape-font-specification:MHGKyokashotaiTHK;letter-spacing:0px;word-spacing:0px;fill:#000000;fill-opacity:1;stroke:none;stroke-width:0.00000012" id="text235">
                            <g aria-label="ポ" style="font-style:normal;font-variant:normal;font-weight:normal;font-stretch:normal;font-size:141.1111145px;line-height:1.25;font-family:MHGKyokashotaiTHK;-inkscape-font-specification:MHGKyokashotaiTHK;letter-spacing:0px;word-spacing:0px;fill:#000000;fill-opacity:1;stroke:none;stroke-width:0.00000003" id="text125" transform="translate(-45.548859,73.315045)">
                              <path d="m 298.21246,-154.94149 c 0,-2.82223 -0.98777,-5.50334 -3.24555,-7.62 -1.83445,-1.83445 -4.23334,-2.82223 -7.19667,-2.82223 -2.96333,0 -5.36222,0.98778 -7.19667,2.82223 -2.11666,2.11666 -3.24555,4.79777 -3.24555,7.76111 0,2.82222 1.12889,5.50333 3.24555,7.62 1.83445,1.83444 4.23334,2.82222 7.19667,2.82222 2.96333,0 5.36222,-0.98778 7.19667,-2.82222 2.25778,-2.11667 3.24555,-4.79778 3.24555,-7.76111 z m -2.68111,73.377775 c 0,-2.54 -0.56444,-4.938889 -1.69333,-7.196667 -1.41111,-2.963334 -3.81,-5.644445 -7.19667,-8.184445 -3.66889,-2.963333 -8.46666,-6.632223 -14.25222,-11.006663 -1.83444,-0.84667 -2.39889,-0.42334 -1.69333,0.98777 5.50333,6.63223 9.59555,11.571116 12.13555,14.957782 1.41111,1.834445 4.09222,5.785556 7.76111,12.135556 0.70556,1.411111 1.83445,2.116667 3.24556,2.116667 1.12889,-0.282222 1.69333,-1.552222 1.69333,-3.81 z m -8.89,-51.223335 c -3.66889,-2.25778 -7.05555,-3.66889 -10.44222,-4.51556 -1.41111,0.84667 -3.10444,1.41112 -4.93889,1.69334 l -19.89667,2.82222 c 0,-4.09222 0.42334,-8.46667 1.12889,-13.26444 0.42334,-2.54 0.70556,-4.65667 1.12889,-6.06778 0.28222,-1.12889 -0.14111,-2.11667 -1.69333,-3.24556 -2.96334,-2.11666 -5.50334,-3.66889 -7.62,-4.51555 -1.97556,-0.56445 -2.39889,-0.28223 -1.69334,1.12889 2.11667,1.55222 3.10445,3.95111 3.24556,7.19666 0.28222,5.50334 0.56444,12.13556 0.56444,19.89667 -12.41777,1.83444 -23.98888,3.95111 -34.71333,6.06778 -1.83444,0.42333 -4.51556,0.14111 -8.32556,-0.56445 -0.98777,0 -1.27,0.42334 -0.42333,0.98778 2.82222,2.68111 5.22111,4.51556 7.05556,5.64444 1.83444,-0.84666 5.22111,-1.69333 10.01889,-2.82222 6.63222,-1.55222 15.38111,-3.10444 26.38777,-4.93889 0,20.17889 -0.14111,38.241116 -0.56444,54.04556 -0.28222,2.116667 -1.27,3.245556 -2.68111,3.245556 -1.83445,0 -6.20889,-1.834444 -13.26445,-5.503333 -1.41111,-0.705556 -1.83444,-0.423334 -1.12888,1.128889 5.92666,4.374444 9.87777,7.62 12.13555,9.877778 1.83445,1.834444 3.38667,4.233333 4.37445,7.196666 1.12888,1.128889 1.97555,0.846667 2.82222,-0.564444 2.96333,-5.503334 4.37444,-9.877778 4.37444,-13.264445 -0.70555,-6.914444 -1.12889,-13.264445 -1.12889,-18.767778 v -37.958889 c 9.17223,-1.12889 16.08667,-1.69333 20.46112,-1.69333 4.37444,0 8.46666,0.42333 12.13555,1.12888 3.66889,0 4.51556,-1.41111 2.68111,-4.37444 z m -68.29778,28.64556 c 0,-1.55223 -0.56444,-1.69334 -1.69333,-0.56445 -2.54,6.632224 -5.36222,11.712224 -8.18445,15.381113 -2.96333,3.668889 -5.08,5.926667 -6.06777,6.632223 -0.84667,2.257778 -0.84667,4.656667 -0.56445,7.196667 0.42334,4.092222 1.97556,4.233333 4.93889,0.564444 4.79778,-5.926667 8.60778,-15.663334 11.57111,-29.209997 z m 77.18778,-50.65889 c 0,2.11666 -0.70555,3.95111 -2.25778,5.50333 -1.41111,1.41111 -3.24555,2.11667 -5.50333,2.11667 -2.11667,0 -3.95111,-0.70556 -5.50333,-2.11667 -1.41111,-1.55222 -2.25778,-3.38667 -2.25778,-5.64444 0,-2.11667 0.84667,-3.95112 2.25778,-5.50334 1.55222,-1.41111 3.38666,-2.11666 5.50333,-2.11666 2.25778,0 4.09222,0.70555 5.50333,2.11666 1.55223,1.55222 2.25778,3.38667 2.25778,5.64445 z" style="font-size:141.1111145px;stroke-width:0.00000003" id="path129" inkscape:connector-curvature="0"/>
                            </g>
                          </g>
                        </g>
                      </g>
                    </g>
                  </g>
                </g>
              </g>
            </g>
          </g>
        </g>
      </g>
    </g>
  </g>
</svg>