<?xml version="1.0" encoding="UTF-8" standalone="no"?>
<!-- Created with Inkscape (http://www.inkscape.org/) -->
<svg xmlns:dc="http://purl.org/dc/elements/1.1/" xmlns:cc="http://creativecommons.org/ns#" xmlns:rdf="http://www.w3.org/1999/02/22-rdf-syntax-ns#" xmlns:svg="http://www.w3.org/2000/svg" xmlns="http://www.w3.org/2000/svg" xmlns:sodipodi="http://sodipodi.sourceforge.net/DTD/sodipodi-0.dtd" xmlns:inkscape="http://www.inkscape.org/namespaces/inkscape" width="500" height="500" viewBox="0 0 132.29167 132.29167" version="1.1" id="svg8" inkscape:version="0.92.4 (5da689c313, 2019-01-14)" sodipodi:docname="Japanese_Katakana_kyokashotai_ZI.svg">
  <defs id="defs2"/>
  <sodipodi:namedview id="base" pagecolor="#ffffff" bordercolor="#666666" borderopacity="1.0" inkscape:pageopacity="0.0" inkscape:pageshadow="2" inkscape:zoom="0.9899495" inkscape:cx="216.67629" inkscape:cy="366.92301" inkscape:document-units="mm" inkscape:current-layer="text110" showgrid="false" units="px" inkscape:window-width="1440" inkscape:window-height="837" inkscape:window-x="-8" inkscape:window-y="-8" inkscape:window-maximized="1"/>
  <metadata id="metadata5">
    <rdf:RDF>
      <cc:Work rdf:about="">
        <dc:format>image/svg+xml</dc:format>
        <dc:type rdf:resource="http://purl.org/dc/dcmitype/StillImage"/>
        <dc:title/>
      </cc:Work>
    </rdf:RDF>
  </metadata>
  <g inkscape:label="Layer 1" inkscape:groupmode="layer" id="layer1" transform="translate(0,-164.70835)">
    <g aria-label="リ" style="font-style:normal;font-variant:normal;font-weight:normal;font-stretch:normal;font-size:25.39999962px;line-height:1.25;font-family:MHGKyokashotaiTHK;-inkscape-font-specification:MHGKyokashotaiTHK;letter-spacing:0px;word-spacing:0px;fill:#000000;fill-opacity:1;stroke:none;stroke-width:0.26458332" id="text12">
      <g aria-label="イ" style="font-style:normal;font-variant:normal;font-weight:normal;font-stretch:normal;font-size:25.39999962px;line-height:1.25;font-family:MHGKyokashotaiTHK;-inkscape-font-specification:MHGKyokashotaiTHK;letter-spacing:0px;word-spacing:0px;fill:#000000;fill-opacity:1;stroke:none;stroke-width:0.07000434" id="text20">
        <g aria-label="ウ" style="font-style:normal;font-variant:normal;font-weight:normal;font-stretch:normal;font-size:25.39999962px;line-height:1.25;font-family:MHGKyokashotaiTHK;-inkscape-font-specification:MHGKyokashotaiTHK;letter-spacing:0px;word-spacing:0px;fill:#000000;fill-opacity:1;stroke:none;stroke-width:0.01852198" id="text36">
          <g aria-label="エ" style="font-style:normal;font-variant:normal;font-weight:normal;font-stretch:normal;font-size:25.39999962px;line-height:1.25;font-family:MHGKyokashotaiTHK;-inkscape-font-specification:MHGKyokashotaiTHK;letter-spacing:0px;word-spacing:0px;fill:#000000;fill-opacity:1;stroke:none;stroke-width:0.00490061" id="text52">
            <g aria-label="オ" style="font-style:normal;font-variant:normal;font-weight:normal;font-stretch:normal;font-size:25.39999962px;line-height:1.25;font-family:MHGKyokashotaiTHK;-inkscape-font-specification:MHGKyokashotaiTHK;letter-spacing:0px;word-spacing:0px;fill:#000000;fill-opacity:1;stroke:none;stroke-width:0.00129662" id="text65">
              <g aria-label="カ" style="font-style:normal;font-variant:normal;font-weight:normal;font-stretch:normal;font-size:25.39999962px;line-height:1.25;font-family:MHGKyokashotaiTHK;-inkscape-font-specification:MHGKyokashotaiTHK;letter-spacing:0px;word-spacing:0px;fill:#000000;fill-opacity:1;stroke:none;stroke-width:0.00034306" id="text3785">
                <g aria-label="キ" style="font-style:normal;font-variant:normal;font-weight:normal;font-stretch:normal;font-size:25.39999962px;line-height:1.25;font-family:MHGKyokashotaiTHK;-inkscape-font-specification:MHGKyokashotaiTHK;letter-spacing:0px;word-spacing:0px;fill:#000000;fill-opacity:1;stroke:none;stroke-width:0.00009077" id="text25">
                  <g aria-label="ク" style="font-style:normal;font-variant:normal;font-weight:normal;font-stretch:normal;font-size:25.39999962px;line-height:1.25;font-family:MHGKyokashotaiTHK;-inkscape-font-specification:MHGKyokashotaiTHK;letter-spacing:0px;word-spacing:0px;fill:#000000;fill-opacity:1;stroke:none;stroke-width:0.00002402" id="text41">
                    <g aria-label="ケ" style="font-style:normal;font-variant:normal;font-weight:normal;font-stretch:normal;font-size:25.39999962px;line-height:1.25;font-family:MHGKyokashotaiTHK;-inkscape-font-specification:MHGKyokashotaiTHK;letter-spacing:0px;word-spacing:0px;fill:#000000;fill-opacity:1;stroke:none;stroke-width:0.00000636" id="text57" transform="translate(-35.678743,99.375527)">
                      <g aria-label="ガ" style="font-style:normal;font-variant:normal;font-weight:normal;font-stretch:normal;font-size:141.1111145px;line-height:1.25;font-family:MHGKyokashotaiTHK;-inkscape-font-specification:MHGKyokashotaiTHK;letter-spacing:0px;word-spacing:0px;fill:#000000;fill-opacity:1;stroke:none;stroke-width:0.00000168" id="text90" transform="translate(-58.409104,85.870703)">
                        <g aria-label="ギ" style="font-style:normal;font-variant:normal;font-weight:normal;font-stretch:normal;font-size:25.39999962px;line-height:1.25;font-family:MHGKyokashotaiTHK;-inkscape-font-specification:MHGKyokashotaiTHK;letter-spacing:0px;word-spacing:0px;fill:#000000;fill-opacity:1;stroke:none;stroke-width:0.00000044" id="text110" transform="translate(-44.156081,83.282783)">
                          <g aria-label="ジ" style="font-style:normal;font-variant:normal;font-weight:normal;font-stretch:normal;font-size:25.39999962px;line-height:1.25;font-family:MHGKyokashotaiTHK;-inkscape-font-specification:MHGKyokashotaiTHK;letter-spacing:0px;word-spacing:0px;fill:#000000;fill-opacity:1;stroke:none;stroke-width:0.00000012" id="text213" transform="translate(-51.435657,93.678642)">
                            <path d="m 294.66131,-169.45347 c 0,-3.24556 -0.98778,-5.78556 -2.82222,-7.62 -2.25778,-1.83445 -6.06778,-3.52778 -11.57111,-4.93889 -1.41112,0 -1.69334,0.28222 -0.56445,0.98777 4.09222,2.25778 7.62,6.49112 11.00667,12.7 0.56444,1.12889 1.55222,1.69334 2.25778,1.69334 1.12888,0 1.69333,-0.98778 1.69333,-2.82222 z m -8.89,8.89 c 0,-3.24556 -0.98778,-5.92667 -2.82222,-7.76112 -2.11667,-1.97555 -6.06778,-3.38666 -11.57111,-4.93888 -1.41112,0 -1.55223,0.42333 -0.42334,1.12888 3.95111,2.25778 7.62,6.49112 11.00667,12.7 0.70555,1.12889 1.41111,1.69334 2.11667,1.69334 1.12888,0 1.69333,-0.98778 1.69333,-2.82222 z m -39.65222,-3.81 c -0.70556,-2.25778 -2.11667,-4.51556 -3.95112,-6.63223 -2.11666,-1.55222 -3.95111,-2.25777 -5.50333,-2.25777 -1.83444,-0.28223 -5.64444,-1.12889 -11.57111,-2.25778 -1.41111,-0.70556 -1.83444,-0.28222 -0.98778,1.12889 6.20889,3.66889 11.00667,6.91444 14.25222,10.01889 2.68112,2.39888 4.65667,3.81 6.06778,3.81 1.41111,0 1.97556,-1.27 1.69334,-3.81 z m 52.91666,15.38111 c 0.70556,-1.83445 0.14111,-2.25778 -1.69333,-1.12889 -11.00667,15.52222 -25.25889,30.19778 -43.60333,43.60333 -15.94556,11.712225 -25.96445,17.074447 -29.77445,17.074447 -1.41111,0 -2.54,-0.423333 -3.24555,-1.128889 -0.70556,-0.705555 -1.12889,-1.693333 -1.12889,-2.681111 0,-1.552222 -0.56445,-1.552222 -1.55223,0 -0.84666,0.987778 -0.56444,3.386667 0.42334,7.055556 2.96333,2.681111 5.78555,4.515556 8.32555,5.503333 0.70556,0 1.69334,-0.564444 2.82223,-1.552222 8.74888,-5.221111 15.52222,-10.16 20.88444,-14.393333 21.16667,-16.368891 37.53556,-33.584441 48.54222,-52.352221 z m -65.05222,15.38111 c -0.70556,-3.66889 -2.25778,-5.92667 -4.37444,-6.63222 -2.25778,-0.84667 -7.62,-1.83445 -16.08667,-3.24556 -1.41111,0 -1.55222,0.56444 -0.56445,1.69333 4.51556,2.11667 9.17223,5.08 14.39334,8.74889 2.54,1.83445 4.23333,2.82223 4.93889,2.82223 1.55222,0 2.11666,-1.12889 1.69333,-3.38667 z" style="font-size:141.1111145px;stroke-width:0.00000012" id="path215" inkscape:connector-curvature="0"/>
                          </g>
                        </g>
                      </g>
                    </g>
                  </g>
                </g>
              </g>
            </g>
          </g>
        </g>
      </g>
    </g>
  </g>
</svg>