<?xml version="1.0" encoding="UTF-8" standalone="no"?>
<!-- Created with Inkscape (http://www.inkscape.org/) -->
<svg xmlns:dc="http://purl.org/dc/elements/1.1/" xmlns:cc="http://creativecommons.org/ns#" xmlns:rdf="http://www.w3.org/1999/02/22-rdf-syntax-ns#" xmlns:svg="http://www.w3.org/2000/svg" xmlns="http://www.w3.org/2000/svg" xmlns:sodipodi="http://sodipodi.sourceforge.net/DTD/sodipodi-0.dtd" xmlns:inkscape="http://www.inkscape.org/namespaces/inkscape" width="500" height="500" viewBox="0 0 132.29167 132.29167" version="1.1" id="svg8" inkscape:version="0.92.4 (5da689c313, 2019-01-14)" sodipodi:docname="Japanese_Katakana_kyokashotai_DI.svg">
  <defs id="defs2"/>
  <sodipodi:namedview id="base" pagecolor="#ffffff" bordercolor="#666666" borderopacity="1.0" inkscape:pageopacity="0.0" inkscape:pageshadow="2" inkscape:zoom="0.9899495" inkscape:cx="344.46201" inkscape:cy="282.0702" inkscape:document-units="mm" inkscape:current-layer="text235" showgrid="false" units="px" inkscape:window-width="1440" inkscape:window-height="837" inkscape:window-x="-8" inkscape:window-y="-8" inkscape:window-maximized="1"/>
  <metadata id="metadata5">
    <rdf:RDF>
      <cc:Work rdf:about="">
        <dc:format>image/svg+xml</dc:format>
        <dc:type rdf:resource="http://purl.org/dc/dcmitype/StillImage"/>
        <dc:title/>
      </cc:Work>
    </rdf:RDF>
  </metadata>
  <g inkscape:label="Layer 1" inkscape:groupmode="layer" id="layer1" transform="translate(0,-164.70835)">
    <g aria-label="リ" style="font-style:normal;font-variant:normal;font-weight:normal;font-stretch:normal;font-size:25.39999962px;line-height:1.25;font-family:MHGKyokashotaiTHK;-inkscape-font-specification:MHGKyokashotaiTHK;letter-spacing:0px;word-spacing:0px;fill:#000000;fill-opacity:1;stroke:none;stroke-width:0.26458332" id="text12">
      <g aria-label="イ" style="font-style:normal;font-variant:normal;font-weight:normal;font-stretch:normal;font-size:25.39999962px;line-height:1.25;font-family:MHGKyokashotaiTHK;-inkscape-font-specification:MHGKyokashotaiTHK;letter-spacing:0px;word-spacing:0px;fill:#000000;fill-opacity:1;stroke:none;stroke-width:0.07000434" id="text20">
        <g aria-label="ウ" style="font-style:normal;font-variant:normal;font-weight:normal;font-stretch:normal;font-size:25.39999962px;line-height:1.25;font-family:MHGKyokashotaiTHK;-inkscape-font-specification:MHGKyokashotaiTHK;letter-spacing:0px;word-spacing:0px;fill:#000000;fill-opacity:1;stroke:none;stroke-width:0.01852198" id="text36">
          <g aria-label="エ" style="font-style:normal;font-variant:normal;font-weight:normal;font-stretch:normal;font-size:25.39999962px;line-height:1.25;font-family:MHGKyokashotaiTHK;-inkscape-font-specification:MHGKyokashotaiTHK;letter-spacing:0px;word-spacing:0px;fill:#000000;fill-opacity:1;stroke:none;stroke-width:0.00490061" id="text52">
            <g aria-label="オ" style="font-style:normal;font-variant:normal;font-weight:normal;font-stretch:normal;font-size:25.39999962px;line-height:1.25;font-family:MHGKyokashotaiTHK;-inkscape-font-specification:MHGKyokashotaiTHK;letter-spacing:0px;word-spacing:0px;fill:#000000;fill-opacity:1;stroke:none;stroke-width:0.00129662" id="text65">
              <g aria-label="カ" style="font-style:normal;font-variant:normal;font-weight:normal;font-stretch:normal;font-size:25.39999962px;line-height:1.25;font-family:MHGKyokashotaiTHK;-inkscape-font-specification:MHGKyokashotaiTHK;letter-spacing:0px;word-spacing:0px;fill:#000000;fill-opacity:1;stroke:none;stroke-width:0.00034306" id="text3785">
                <g aria-label="キ" style="font-style:normal;font-variant:normal;font-weight:normal;font-stretch:normal;font-size:25.39999962px;line-height:1.25;font-family:MHGKyokashotaiTHK;-inkscape-font-specification:MHGKyokashotaiTHK;letter-spacing:0px;word-spacing:0px;fill:#000000;fill-opacity:1;stroke:none;stroke-width:0.00009077" id="text25">
                  <g aria-label="ク" style="font-style:normal;font-variant:normal;font-weight:normal;font-stretch:normal;font-size:25.39999962px;line-height:1.25;font-family:MHGKyokashotaiTHK;-inkscape-font-specification:MHGKyokashotaiTHK;letter-spacing:0px;word-spacing:0px;fill:#000000;fill-opacity:1;stroke:none;stroke-width:0.00002402" id="text41">
                    <g aria-label="ケ" style="font-style:normal;font-variant:normal;font-weight:normal;font-stretch:normal;font-size:25.39999962px;line-height:1.25;font-family:MHGKyokashotaiTHK;-inkscape-font-specification:MHGKyokashotaiTHK;letter-spacing:0px;word-spacing:0px;fill:#000000;fill-opacity:1;stroke:none;stroke-width:0.00000636" id="text57" transform="translate(-35.678743,99.375527)">
                      <g aria-label="ガ" style="font-style:normal;font-variant:normal;font-weight:normal;font-stretch:normal;font-size:141.1111145px;line-height:1.25;font-family:MHGKyokashotaiTHK;-inkscape-font-specification:MHGKyokashotaiTHK;letter-spacing:0px;word-spacing:0px;fill:#000000;fill-opacity:1;stroke:none;stroke-width:0.00000168" id="text90" transform="translate(-58.409104,85.870703)">
                        <g aria-label="ギ" style="font-style:normal;font-variant:normal;font-weight:normal;font-stretch:normal;font-size:25.39999962px;line-height:1.25;font-family:MHGKyokashotaiTHK;-inkscape-font-specification:MHGKyokashotaiTHK;letter-spacing:0px;word-spacing:0px;fill:#000000;fill-opacity:1;stroke:none;stroke-width:0.00000044" id="text110" transform="translate(-44.156081,83.282783)">
                          <text xml:space="preserve" style="font-style:normal;font-variant:normal;font-weight:normal;font-stretch:normal;font-size:25.39999962px;line-height:1.25;font-family:MHGKyokashotaiTHK;-inkscape-font-specification:MHGKyokashotaiTHK;letter-spacing:0px;word-spacing:0px;fill:#000000;fill-opacity:1;stroke:none;stroke-width:0.00000012" x="166.30724" y="-90.731201" id="text220"><tspan sodipodi:role="line" id="tspan218" x="166.30724" y="-65.318748" style="stroke-width:0.00000012"/></text>
                          <g aria-label="ゼ" style="font-style:normal;font-variant:normal;font-weight:normal;font-stretch:normal;font-size:25.39999962px;line-height:1.25;font-family:MHGKyokashotaiTHK;-inkscape-font-specification:MHGKyokashotaiTHK;letter-spacing:0px;word-spacing:0px;fill:#000000;fill-opacity:1;stroke:none;stroke-width:0.00000012" id="text235">
                            <g aria-label="ヂ" style="font-style:normal;font-variant:normal;font-weight:normal;font-stretch:normal;font-size:25.39999962px;line-height:1.25;font-family:MHGKyokashotaiTHK;-inkscape-font-specification:MHGKyokashotaiTHK;letter-spacing:0px;word-spacing:0px;fill:#000000;fill-opacity:1;stroke:none;stroke-width:0.00000003" id="text291" transform="translate(-59.463581,89.857902)">
                              <path d="m 319.45666,-167.25551 c 0,-3.24555 -0.98777,-5.78555 -2.82222,-7.62 -2.11666,-1.97555 -6.06778,-3.52778 -11.57111,-5.08 -1.41111,0 -1.69333,0.42333 -0.56444,1.12889 4.09222,2.25778 7.76111,6.49111 11.00666,12.7 0.84667,1.12889 1.55223,1.69333 2.25778,1.69333 1.12889,0 1.69333,-0.98777 1.69333,-2.82222 z m -12.13555,7.76111 c 0,-3.24555 -0.98778,-5.92666 -2.82222,-7.76111 -2.11667,-1.97555 -6.06778,-3.38667 -11.57112,-4.93889 -1.41111,0 -1.69333,0.42334 -0.56444,1.12889 4.09222,2.25778 7.76111,6.49111 11.00667,12.7 0.84666,1.12889 1.55222,1.69333 2.25777,1.69333 1.12889,0 1.69334,-0.98777 1.69334,-2.82222 z m 0,22.01334 c -4.79778,-3.24556 -8.89,-5.08 -12.13556,-5.50334 l -3.95111,1.12889 c -8.74889,1.12889 -17.07444,2.25778 -24.69444,3.24556 v -11.57111 c 0,-0.98778 0.14111,-2.11667 0.56444,-3.24556 0,-1.12889 -3.38667,-3.38667 -10.01889,-6.63222 7.76111,-2.96334 15.66334,-6.06778 23.70667,-9.31334 4.09222,-0.42333 4.79778,-1.55222 2.25778,-3.38666 -5.22111,-3.66889 -8.89,-6.06778 -11.00667,-7.19667 -1.55222,-0.70556 -1.83444,-0.28222 -1.12889,1.12889 1.41111,1.12889 2.25778,2.39889 2.25778,3.95111 -2.68111,2.82222 -8.74889,6.63222 -18.20334,11.00667 -9.59555,4.51555 -19.89666,8.18444 -30.90333,11.57111 -1.12889,1.12889 -0.98778,1.55222 0.56445,1.55222 9.59555,-2.11667 19.47333,-4.93889 29.77444,-8.18444 3.66889,2.54 5.50333,5.64444 5.50333,9.31333 v 12.13556 c -15.09889,2.54 -29.63333,5.22111 -43.60333,7.76111 -2.54,0.42333 -4.79778,0.56444 -6.63222,0.56444 -1.41111,0 -1.83445,0.28222 -0.98778,1.12889 1.83444,1.83445 4.51555,3.38667 8.18444,4.93889 2.96334,-1.12889 6.20889,-2.25778 9.87778,-3.38667 7.76111,-2.25777 18.76778,-4.37444 33.16111,-6.63222 -0.70555,12.13556 -2.82222,22.57778 -6.06777,31.46778 -3.38667,9.172222 -8.04334,17.638888 -14.39334,25.4 -0.70555,1.411111 -0.28222,1.834444 1.12889,1.128889 8.04333,-8.466667 13.97,-16.651112 17.63889,-24.271112 4.09222,-8.466667 6.63222,-19.896667 7.76111,-34.148887 10.30111,-1.12889 17.78,-1.69334 22.57778,-1.69334 5.08,0 10.86556,0.28223 17.07444,1.12889 2.25778,-0.42333 2.82223,-1.55222 1.69334,-3.38666 z" style="font-size:141.1111145px;stroke-width:0.00000003" id="path296" inkscape:connector-curvature="0"/>
                            </g>
                          </g>
                        </g>
                      </g>
                    </g>
                  </g>
                </g>
              </g>
            </g>
          </g>
        </g>
      </g>
    </g>
  </g>
</svg>