<?xml version="1.0" encoding="UTF-8" standalone="no"?>
<!-- Created with Inkscape (http://www.inkscape.org/) -->
<svg xmlns:dc="http://purl.org/dc/elements/1.1/" xmlns:cc="http://creativecommons.org/ns#" xmlns:rdf="http://www.w3.org/1999/02/22-rdf-syntax-ns#" xmlns:svg="http://www.w3.org/2000/svg" xmlns="http://www.w3.org/2000/svg" xmlns:sodipodi="http://sodipodi.sourceforge.net/DTD/sodipodi-0.dtd" xmlns:inkscape="http://www.inkscape.org/namespaces/inkscape" width="500" height="500" viewBox="0 0 132.29167 132.29167" version="1.1" id="svg8" inkscape:version="0.92.4 (5da689c313, 2019-01-14)" sodipodi:docname="Japanese_Katakana_kyokashotai_GA.svg">
  <defs id="defs2"/>
  <sodipodi:namedview id="base" pagecolor="#ffffff" bordercolor="#666666" borderopacity="1.0" inkscape:pageopacity="0.0" inkscape:pageshadow="2" inkscape:zoom="0.49497475" inkscape:cx="-47.033232" inkscape:cy="278.59405" inkscape:document-units="mm" inkscape:current-layer="text90" showgrid="false" units="px" inkscape:window-width="1440" inkscape:window-height="837" inkscape:window-x="-8" inkscape:window-y="-8" inkscape:window-maximized="1"/>
  <metadata id="metadata5">
    <rdf:RDF>
      <cc:Work rdf:about="">
        <dc:format>image/svg+xml</dc:format>
        <dc:type rdf:resource="http://purl.org/dc/dcmitype/StillImage"/>
        <dc:title/>
      </cc:Work>
    </rdf:RDF>
  </metadata>
  <g inkscape:label="Layer 1" inkscape:groupmode="layer" id="layer1" transform="translate(0,-164.70835)">
    <g aria-label="リ" style="font-style:normal;font-variant:normal;font-weight:normal;font-stretch:normal;font-size:25.39999962px;line-height:1.25;font-family:MHGKyokashotaiTHK;-inkscape-font-specification:MHGKyokashotaiTHK;letter-spacing:0px;word-spacing:0px;fill:#000000;fill-opacity:1;stroke:none;stroke-width:0.26458332" id="text12">
      <g aria-label="イ" style="font-style:normal;font-variant:normal;font-weight:normal;font-stretch:normal;font-size:25.39999962px;line-height:1.25;font-family:MHGKyokashotaiTHK;-inkscape-font-specification:MHGKyokashotaiTHK;letter-spacing:0px;word-spacing:0px;fill:#000000;fill-opacity:1;stroke:none;stroke-width:0.07000434" id="text20">
        <g aria-label="ウ" style="font-style:normal;font-variant:normal;font-weight:normal;font-stretch:normal;font-size:25.39999962px;line-height:1.25;font-family:MHGKyokashotaiTHK;-inkscape-font-specification:MHGKyokashotaiTHK;letter-spacing:0px;word-spacing:0px;fill:#000000;fill-opacity:1;stroke:none;stroke-width:0.01852198" id="text36">
          <g aria-label="エ" style="font-style:normal;font-variant:normal;font-weight:normal;font-stretch:normal;font-size:25.39999962px;line-height:1.25;font-family:MHGKyokashotaiTHK;-inkscape-font-specification:MHGKyokashotaiTHK;letter-spacing:0px;word-spacing:0px;fill:#000000;fill-opacity:1;stroke:none;stroke-width:0.00490061" id="text52">
            <g aria-label="オ" style="font-style:normal;font-variant:normal;font-weight:normal;font-stretch:normal;font-size:25.39999962px;line-height:1.25;font-family:MHGKyokashotaiTHK;-inkscape-font-specification:MHGKyokashotaiTHK;letter-spacing:0px;word-spacing:0px;fill:#000000;fill-opacity:1;stroke:none;stroke-width:0.00129662" id="text65">
              <g aria-label="カ" style="font-style:normal;font-variant:normal;font-weight:normal;font-stretch:normal;font-size:25.39999962px;line-height:1.25;font-family:MHGKyokashotaiTHK;-inkscape-font-specification:MHGKyokashotaiTHK;letter-spacing:0px;word-spacing:0px;fill:#000000;fill-opacity:1;stroke:none;stroke-width:0.00034306" id="text3785">
                <g aria-label="キ" style="font-style:normal;font-variant:normal;font-weight:normal;font-stretch:normal;font-size:25.39999962px;line-height:1.25;font-family:MHGKyokashotaiTHK;-inkscape-font-specification:MHGKyokashotaiTHK;letter-spacing:0px;word-spacing:0px;fill:#000000;fill-opacity:1;stroke:none;stroke-width:0.00009077" id="text25">
                  <g aria-label="ク" style="font-style:normal;font-variant:normal;font-weight:normal;font-stretch:normal;font-size:25.39999962px;line-height:1.25;font-family:MHGKyokashotaiTHK;-inkscape-font-specification:MHGKyokashotaiTHK;letter-spacing:0px;word-spacing:0px;fill:#000000;fill-opacity:1;stroke:none;stroke-width:0.00002402" id="text41">
                    <g aria-label="ケ" style="font-style:normal;font-variant:normal;font-weight:normal;font-stretch:normal;font-size:25.39999962px;line-height:1.25;font-family:MHGKyokashotaiTHK;-inkscape-font-specification:MHGKyokashotaiTHK;letter-spacing:0px;word-spacing:0px;fill:#000000;fill-opacity:1;stroke:none;stroke-width:0.00000636" id="text57" transform="translate(-35.678743,99.375527)">
                      <g aria-label="ガ" style="font-style:normal;font-variant:normal;font-weight:normal;font-stretch:normal;font-size:141.1111145px;line-height:1.25;font-family:MHGKyokashotaiTHK;-inkscape-font-specification:MHGKyokashotaiTHK;letter-spacing:0px;word-spacing:0px;fill:#000000;fill-opacity:1;stroke:none;stroke-width:0.00000168" id="text90" transform="translate(-58.409104,85.870703)">
                        <path d="m 214.84116,5.6911471 c 0,-3.3866668 -0.84667,-5.92666681 -2.68111,-7.7611113 -2.25778,-1.8344445 -6.06778,-3.5277779 -11.57111,-4.938889 -1.55222,0 -1.69333,0.2822222 -0.56445,1.1288889 3.95112,2.1166667 7.62,6.35000016 11.00667,12.5588892 0.70556,1.1288889 1.41111,1.6933334 2.25778,1.6933334 0.98778,0 1.55222,-0.8466667 1.55222,-2.6811112 z m -8.74889,8.7488889 c 0,-3.245555 -0.98778,-5.9266666 -2.82222,-7.7611111 -2.11667,-1.9755556 -6.06778,-3.3866668 -11.57111,-4.938889 -1.41111,0 -1.69333,0.4233333 -0.56445,1.1288889 4.09223,2.2577778 7.76112,6.4911113 11.00667,12.7000002 0.84667,1.128889 1.55222,1.693333 2.25778,1.693333 1.12889,0 1.69333,-0.987777 1.69333,-2.822222 z m -5.50333,6.632223 -7.19667,-4.938889 c -0.42333,-0.423334 -1.83444,0 -4.37444,1.128888 l -30.33889,5.503334 c 2.96333,-5.503334 5.50333,-11.853334 7.76111,-18.7677783 1.83444,-1.1288889 2.11667,-2.2577778 0.98778,-3.38666673 -4.37445,-4.65666677 -7.47889,-7.05555577 -9.31334,-7.05555577 -1.83444,-0.8466666 -2.39889,-0.4233333 -1.69333,0.9877778 2.25778,2.2577779 3.38667,4.0922224 3.38667,5.64444463 0,1.41111117 -0.56445,3.81000007 -1.69334,7.05555577 -1.12889,3.3866666 -3.10444,8.8900006 -6.06777,16.5100006 l -24.27112,4.515555 c -4.37444,0.846667 -8.04333,0.705556 -11.00666,0 -1.41111,-0.705555 -1.83445,-0.282222 -1.12889,1.552223 1.83444,1.552222 4.79778,3.386666 8.89,5.644444 0.98778,-0.423333 2.11666,-0.846666 3.24555,-1.128889 6.63223,-1.975555 13.82889,-3.527778 21.44889,-4.938889 -10.30111,23.142223 -24.69444,44.026668 -43.46222,62.794446 -0.42333,1.834445 0.14111,2.398889 1.69333,1.693334 11.28889,-10.018889 20.74334,-19.896667 28.08111,-29.774446 8.04334,-11.006666 15.38112,-23.142222 22.01334,-36.406667 11.00667,-2.54 21.73111,-4.656667 32.03222,-6.067778 1.41111,-0.423333 2.11667,0.282222 2.11667,2.116667 -1.12889,10.724444 -4.65667,23.424445 -10.44222,38.100001 -4.09223,10.301111 -8.46667,17.78 -13.26445,22.577778 -1.83444,1.834444 -3.66889,2.54 -5.50333,1.693333 -3.66889,-1.693333 -7.33778,-4.092222 -11.00667,-6.632222 -1.41111,-0.705556 -1.83444,-0.423333 -1.12889,1.128889 5.50334,5.503333 9.03111,9.031111 10.44222,10.442222 1.12889,1.128889 2.25778,3.245556 3.38667,6.632223 0.70556,0.705555 1.41111,0.705555 2.25778,0 6.20889,-6.208889 11.43,-14.252223 15.94555,-23.706667 6.20889,-13.264445 11.71223,-29.774446 16.51001,-49.671113 2.54,-0.987778 3.10444,-2.257778 1.69333,-3.245555 z" style="font-size:141.1111145px;stroke-width:0.00000168" id="path96" inkscape:connector-curvature="0"/>
                      </g>
                    </g>
                  </g>
                </g>
              </g>
            </g>
          </g>
        </g>
      </g>
    </g>
  </g>
</svg>