<?xml version="1.0" encoding="UTF-8" standalone="no"?>
<!-- Created with Inkscape (http://www.inkscape.org/) -->
<svg xmlns:dc="http://purl.org/dc/elements/1.1/" xmlns:cc="http://creativecommons.org/ns#" xmlns:rdf="http://www.w3.org/1999/02/22-rdf-syntax-ns#" xmlns:svg="http://www.w3.org/2000/svg" xmlns="http://www.w3.org/2000/svg" xmlns:sodipodi="http://sodipodi.sourceforge.net/DTD/sodipodi-0.dtd" xmlns:inkscape="http://www.inkscape.org/namespaces/inkscape" width="500" height="500" viewBox="0 0 132.29167 132.29167" version="1.1" id="svg8" inkscape:version="0.92.4 (5da689c313, 2019-01-14)" sodipodi:docname="Japanese_Katakana_kyokashotai_GI.svg">
  <defs id="defs2"/>
  <sodipodi:namedview id="base" pagecolor="#ffffff" bordercolor="#666666" borderopacity="1.0" inkscape:pageopacity="0.0" inkscape:pageshadow="2" inkscape:zoom="0.9899495" inkscape:cx="216.67629" inkscape:cy="323.48647" inkscape:document-units="mm" inkscape:current-layer="text110" showgrid="false" units="px" inkscape:window-width="1440" inkscape:window-height="837" inkscape:window-x="-8" inkscape:window-y="-8" inkscape:window-maximized="1"/>
  <metadata id="metadata5">
    <rdf:RDF>
      <cc:Work rdf:about="">
        <dc:format>image/svg+xml</dc:format>
        <dc:type rdf:resource="http://purl.org/dc/dcmitype/StillImage"/>
        <dc:title/>
      </cc:Work>
    </rdf:RDF>
  </metadata>
  <g inkscape:label="Layer 1" inkscape:groupmode="layer" id="layer1" transform="translate(0,-164.70835)">
    <g aria-label="リ" style="font-style:normal;font-variant:normal;font-weight:normal;font-stretch:normal;font-size:25.39999962px;line-height:1.25;font-family:MHGKyokashotaiTHK;-inkscape-font-specification:MHGKyokashotaiTHK;letter-spacing:0px;word-spacing:0px;fill:#000000;fill-opacity:1;stroke:none;stroke-width:0.26458332" id="text12">
      <g aria-label="イ" style="font-style:normal;font-variant:normal;font-weight:normal;font-stretch:normal;font-size:25.39999962px;line-height:1.25;font-family:MHGKyokashotaiTHK;-inkscape-font-specification:MHGKyokashotaiTHK;letter-spacing:0px;word-spacing:0px;fill:#000000;fill-opacity:1;stroke:none;stroke-width:0.07000434" id="text20">
        <g aria-label="ウ" style="font-style:normal;font-variant:normal;font-weight:normal;font-stretch:normal;font-size:25.39999962px;line-height:1.25;font-family:MHGKyokashotaiTHK;-inkscape-font-specification:MHGKyokashotaiTHK;letter-spacing:0px;word-spacing:0px;fill:#000000;fill-opacity:1;stroke:none;stroke-width:0.01852198" id="text36">
          <g aria-label="エ" style="font-style:normal;font-variant:normal;font-weight:normal;font-stretch:normal;font-size:25.39999962px;line-height:1.25;font-family:MHGKyokashotaiTHK;-inkscape-font-specification:MHGKyokashotaiTHK;letter-spacing:0px;word-spacing:0px;fill:#000000;fill-opacity:1;stroke:none;stroke-width:0.00490061" id="text52">
            <g aria-label="オ" style="font-style:normal;font-variant:normal;font-weight:normal;font-stretch:normal;font-size:25.39999962px;line-height:1.25;font-family:MHGKyokashotaiTHK;-inkscape-font-specification:MHGKyokashotaiTHK;letter-spacing:0px;word-spacing:0px;fill:#000000;fill-opacity:1;stroke:none;stroke-width:0.00129662" id="text65">
              <g aria-label="カ" style="font-style:normal;font-variant:normal;font-weight:normal;font-stretch:normal;font-size:25.39999962px;line-height:1.25;font-family:MHGKyokashotaiTHK;-inkscape-font-specification:MHGKyokashotaiTHK;letter-spacing:0px;word-spacing:0px;fill:#000000;fill-opacity:1;stroke:none;stroke-width:0.00034306" id="text3785">
                <g aria-label="キ" style="font-style:normal;font-variant:normal;font-weight:normal;font-stretch:normal;font-size:25.39999962px;line-height:1.25;font-family:MHGKyokashotaiTHK;-inkscape-font-specification:MHGKyokashotaiTHK;letter-spacing:0px;word-spacing:0px;fill:#000000;fill-opacity:1;stroke:none;stroke-width:0.00009077" id="text25">
                  <g aria-label="ク" style="font-style:normal;font-variant:normal;font-weight:normal;font-stretch:normal;font-size:25.39999962px;line-height:1.25;font-family:MHGKyokashotaiTHK;-inkscape-font-specification:MHGKyokashotaiTHK;letter-spacing:0px;word-spacing:0px;fill:#000000;fill-opacity:1;stroke:none;stroke-width:0.00002402" id="text41">
                    <g aria-label="ケ" style="font-style:normal;font-variant:normal;font-weight:normal;font-stretch:normal;font-size:25.39999962px;line-height:1.25;font-family:MHGKyokashotaiTHK;-inkscape-font-specification:MHGKyokashotaiTHK;letter-spacing:0px;word-spacing:0px;fill:#000000;fill-opacity:1;stroke:none;stroke-width:0.00000636" id="text57" transform="translate(-35.678743,99.375527)">
                      <g aria-label="ガ" style="font-style:normal;font-variant:normal;font-weight:normal;font-stretch:normal;font-size:141.1111145px;line-height:1.25;font-family:MHGKyokashotaiTHK;-inkscape-font-specification:MHGKyokashotaiTHK;letter-spacing:0px;word-spacing:0px;fill:#000000;fill-opacity:1;stroke:none;stroke-width:0.00000168" id="text90" transform="translate(-58.409104,85.870703)">
                        <g aria-label="ギ" style="font-style:normal;font-variant:normal;font-weight:normal;font-stretch:normal;font-size:25.39999962px;line-height:1.25;font-family:MHGKyokashotaiTHK;-inkscape-font-specification:MHGKyokashotaiTHK;letter-spacing:0px;word-spacing:0px;fill:#000000;fill-opacity:1;stroke:none;stroke-width:0.00000044" id="text110" transform="translate(-44.156081,83.282783)">
                          <path d="m 254.62083,-81.169218 c 0,-3.386667 -0.84667,-5.926667 -2.68112,-7.761111 -2.25777,-1.834445 -6.06777,-3.527778 -11.57111,-4.938889 -1.55222,0 -1.69333,0.282222 -0.56444,1.128889 3.95111,2.116666 7.62,6.35 11.00667,12.558889 0.56444,1.128889 1.41111,1.693333 2.25777,1.693333 0.98778,0 1.55223,-0.846667 1.55223,-2.681111 z m -9.31334,7.62 c 0,-3.245556 -0.98778,-5.785556 -2.82222,-7.62 -2.11667,-1.975556 -6.06778,-3.527778 -11.57111,-5.08 -1.41111,0 -1.55222,0.423333 -0.56445,1.128889 4.09223,2.257778 7.76112,6.491111 11.14778,12.7 0.70556,1.128889 1.41111,1.693333 2.11667,1.693333 1.12889,0 1.69333,-0.987777 1.69333,-2.822222 z m 5.50334,33.161112 c -2.25778,-1.552222 -6.20889,-2.681111 -12.13556,-3.386667 -1.41111,0 -3.10444,0.564445 -4.93889,1.693334 -9.87778,2.54 -19.33222,4.938889 -28.08111,7.196666 l -4.51556,-23.142222 c 7.76111,-2.257778 15.80445,-4.797778 24.27112,-7.761112 2.25777,-0.705555 2.25777,-1.834444 0,-3.245555 -2.54,-0.846667 -4.79778,-1.128889 -6.63223,-1.128889 -2.11666,0 -3.81,0.141111 -4.93889,0.564444 l -3.24555,2.116667 c -2.96334,1.552222 -6.49111,2.963333 -10.44222,4.515556 -0.84667,-4.092223 -1.55223,-7.620001 -2.25778,-10.583334 -0.42334,-1.834444 -0.42334,-3.81 0,-6.067778 0.70555,-2.116667 0.56444,-3.527778 -0.56445,-3.81 -4.79777,-1.552222 -8.60777,-2.257778 -11.57111,-2.257778 -1.41111,0 -1.69333,0.564445 -0.56444,1.693334 3.38666,0.705555 5.22111,3.104444 6.06778,7.196666 l 3.38666,15.945556 c -8.18444,2.963334 -14.81666,5.221112 -19.89666,6.632223 -2.54,0.705555 -5.36223,0.705555 -8.32556,0 -1.41111,-0.705556 -1.55222,-0.423334 -0.56445,1.128889 3.66889,2.116666 6.35001,3.527778 7.76112,3.81 0.70555,0 2.25777,-0.423334 4.37444,-1.128889 5.92667,-1.834445 11.85333,-3.81 17.63889,-6.067778 l 4.51556,23.142223 c -9.59556,2.963333 -21.44889,6.773333 -35.27778,11.571111 -3.81,1.411111 -6.91445,2.257778 -9.45445,2.257778 -1.41111,0 -1.69333,0.564444 -0.56444,1.693333 2.54,1.128889 5.36222,1.975556 8.32555,2.681111 0.70556,-0.282222 2.11667,-1.128888 4.37445,-2.116666 9.17222,-4.233334 20.46111,-7.902223 33.58444,-11.571112 l 6.06778,30.7622233 c 0.42333,1.8344445 0.56445,3.668889 0.56445,5.6444446 0,2.8222221 1.69333,6.2088891 4.93889,9.8777781 2.68111,1.834444 4.09222,1.27 4.51555,-1.693333 -1.12889,-4.797778 -4.65667,-20.1788898 -10.58333,-46.284446 10.30111,-2.257778 18.06222,-3.527778 23.28333,-4.374445 6.20889,-0.987777 11.99445,-1.552222 17.63889,-1.128888 3.95111,-0.423334 5.08,-1.834445 3.24556,-4.374445 z" style="font-size:141.1111145px;stroke-width:0.00000044" id="path112" inkscape:connector-curvature="0"/>
                        </g>
                      </g>
                    </g>
                  </g>
                </g>
              </g>
            </g>
          </g>
        </g>
      </g>
    </g>
  </g>
</svg>