<?xml version="1.0" encoding="UTF-8" standalone="no"?>
<!-- Created with Inkscape (http://www.inkscape.org/) -->
<svg xmlns:dc="http://purl.org/dc/elements/1.1/" xmlns:cc="http://creativecommons.org/ns#" xmlns:rdf="http://www.w3.org/1999/02/22-rdf-syntax-ns#" xmlns:svg="http://www.w3.org/2000/svg" xmlns="http://www.w3.org/2000/svg" xmlns:sodipodi="http://sodipodi.sourceforge.net/DTD/sodipodi-0.dtd" xmlns:inkscape="http://www.inkscape.org/namespaces/inkscape" width="500" height="500" viewBox="0 0 132.29167 132.29167" version="1.1" id="svg8" inkscape:version="0.92.4 (5da689c313, 2019-01-14)" sodipodi:docname="Japanese_Katakana_kyokashotai_DA.svg">
  <defs id="defs2"/>
  <sodipodi:namedview id="base" pagecolor="#ffffff" bordercolor="#666666" borderopacity="1.0" inkscape:pageopacity="0.0" inkscape:pageshadow="2" inkscape:zoom="0.9899495" inkscape:cx="344.46201" inkscape:cy="301.26309" inkscape:document-units="mm" inkscape:current-layer="text235" showgrid="false" units="px" inkscape:window-width="1440" inkscape:window-height="837" inkscape:window-x="-8" inkscape:window-y="-8" inkscape:window-maximized="1"/>
  <metadata id="metadata5">
    <rdf:RDF>
      <cc:Work rdf:about="">
        <dc:format>image/svg+xml</dc:format>
        <dc:type rdf:resource="http://purl.org/dc/dcmitype/StillImage"/>
        <dc:title/>
      </cc:Work>
    </rdf:RDF>
  </metadata>
  <g inkscape:label="Layer 1" inkscape:groupmode="layer" id="layer1" transform="translate(0,-164.70835)">
    <g aria-label="リ" style="font-style:normal;font-variant:normal;font-weight:normal;font-stretch:normal;font-size:25.39999962px;line-height:1.25;font-family:MHGKyokashotaiTHK;-inkscape-font-specification:MHGKyokashotaiTHK;letter-spacing:0px;word-spacing:0px;fill:#000000;fill-opacity:1;stroke:none;stroke-width:0.26458332" id="text12">
      <g aria-label="イ" style="font-style:normal;font-variant:normal;font-weight:normal;font-stretch:normal;font-size:25.39999962px;line-height:1.25;font-family:MHGKyokashotaiTHK;-inkscape-font-specification:MHGKyokashotaiTHK;letter-spacing:0px;word-spacing:0px;fill:#000000;fill-opacity:1;stroke:none;stroke-width:0.07000434" id="text20">
        <g aria-label="ウ" style="font-style:normal;font-variant:normal;font-weight:normal;font-stretch:normal;font-size:25.39999962px;line-height:1.25;font-family:MHGKyokashotaiTHK;-inkscape-font-specification:MHGKyokashotaiTHK;letter-spacing:0px;word-spacing:0px;fill:#000000;fill-opacity:1;stroke:none;stroke-width:0.01852198" id="text36">
          <g aria-label="エ" style="font-style:normal;font-variant:normal;font-weight:normal;font-stretch:normal;font-size:25.39999962px;line-height:1.25;font-family:MHGKyokashotaiTHK;-inkscape-font-specification:MHGKyokashotaiTHK;letter-spacing:0px;word-spacing:0px;fill:#000000;fill-opacity:1;stroke:none;stroke-width:0.00490061" id="text52">
            <g aria-label="オ" style="font-style:normal;font-variant:normal;font-weight:normal;font-stretch:normal;font-size:25.39999962px;line-height:1.25;font-family:MHGKyokashotaiTHK;-inkscape-font-specification:MHGKyokashotaiTHK;letter-spacing:0px;word-spacing:0px;fill:#000000;fill-opacity:1;stroke:none;stroke-width:0.00129662" id="text65">
              <g aria-label="カ" style="font-style:normal;font-variant:normal;font-weight:normal;font-stretch:normal;font-size:25.39999962px;line-height:1.25;font-family:MHGKyokashotaiTHK;-inkscape-font-specification:MHGKyokashotaiTHK;letter-spacing:0px;word-spacing:0px;fill:#000000;fill-opacity:1;stroke:none;stroke-width:0.00034306" id="text3785">
                <g aria-label="キ" style="font-style:normal;font-variant:normal;font-weight:normal;font-stretch:normal;font-size:25.39999962px;line-height:1.25;font-family:MHGKyokashotaiTHK;-inkscape-font-specification:MHGKyokashotaiTHK;letter-spacing:0px;word-spacing:0px;fill:#000000;fill-opacity:1;stroke:none;stroke-width:0.00009077" id="text25">
                  <g aria-label="ク" style="font-style:normal;font-variant:normal;font-weight:normal;font-stretch:normal;font-size:25.39999962px;line-height:1.25;font-family:MHGKyokashotaiTHK;-inkscape-font-specification:MHGKyokashotaiTHK;letter-spacing:0px;word-spacing:0px;fill:#000000;fill-opacity:1;stroke:none;stroke-width:0.00002402" id="text41">
                    <g aria-label="ケ" style="font-style:normal;font-variant:normal;font-weight:normal;font-stretch:normal;font-size:25.39999962px;line-height:1.25;font-family:MHGKyokashotaiTHK;-inkscape-font-specification:MHGKyokashotaiTHK;letter-spacing:0px;word-spacing:0px;fill:#000000;fill-opacity:1;stroke:none;stroke-width:0.00000636" id="text57" transform="translate(-35.678743,99.375527)">
                      <g aria-label="ガ" style="font-style:normal;font-variant:normal;font-weight:normal;font-stretch:normal;font-size:141.1111145px;line-height:1.25;font-family:MHGKyokashotaiTHK;-inkscape-font-specification:MHGKyokashotaiTHK;letter-spacing:0px;word-spacing:0px;fill:#000000;fill-opacity:1;stroke:none;stroke-width:0.00000168" id="text90" transform="translate(-58.409104,85.870703)">
                        <g aria-label="ギ" style="font-style:normal;font-variant:normal;font-weight:normal;font-stretch:normal;font-size:25.39999962px;line-height:1.25;font-family:MHGKyokashotaiTHK;-inkscape-font-specification:MHGKyokashotaiTHK;letter-spacing:0px;word-spacing:0px;fill:#000000;fill-opacity:1;stroke:none;stroke-width:0.00000044" id="text110" transform="translate(-44.156081,83.282783)">
                          <text xml:space="preserve" style="font-style:normal;font-variant:normal;font-weight:normal;font-stretch:normal;font-size:25.39999962px;line-height:1.25;font-family:MHGKyokashotaiTHK;-inkscape-font-specification:MHGKyokashotaiTHK;letter-spacing:0px;word-spacing:0px;fill:#000000;fill-opacity:1;stroke:none;stroke-width:0.00000012" x="166.30724" y="-90.731201" id="text220"><tspan sodipodi:role="line" id="tspan218" x="166.30724" y="-65.318748" style="stroke-width:0.00000012"/></text>
                          <g aria-label="ゼ" style="font-style:normal;font-variant:normal;font-weight:normal;font-stretch:normal;font-size:25.39999962px;line-height:1.25;font-family:MHGKyokashotaiTHK;-inkscape-font-specification:MHGKyokashotaiTHK;letter-spacing:0px;word-spacing:0px;fill:#000000;fill-opacity:1;stroke:none;stroke-width:0.00000012" id="text235">
                            <g aria-label="ダ" style="font-style:normal;font-variant:normal;font-weight:normal;font-stretch:normal;font-size:25.39999962px;line-height:1.25;font-family:MHGKyokashotaiTHK;-inkscape-font-specification:MHGKyokashotaiTHK;letter-spacing:0px;word-spacing:0px;fill:#000000;fill-opacity:1;stroke:none;stroke-width:0.00000003" id="text284" transform="translate(-38.999763,99.098794)">
                              <path d="m 298.70777,-178.4014 c 0,-3.24556 -0.98778,-5.78556 -2.82222,-7.62 -2.11667,-1.97556 -6.06778,-3.52778 -11.57111,-5.08 -1.41111,0 -1.55222,0.42333 -0.56445,1.12888 4.09223,2.25778 7.76112,6.49112 11.14778,12.7 0.70556,1.12889 1.41111,1.69334 2.11667,1.69334 1.12889,0 1.69333,-0.98778 1.69333,-2.82222 z m -9.87778,6.06777 c 0,-3.24555 -0.98777,-5.78555 -2.82222,-7.62 -2.25778,-1.83444 -6.06778,-3.52777 -11.57111,-5.08 -1.41111,0 -1.69333,0.42334 -0.56444,1.12889 4.09222,2.25778 7.62,6.49111 11.00666,12.7 0.56445,1.12889 1.55222,1.69334 2.25778,1.69334 1.12889,0 1.69333,-0.98778 1.69333,-2.82223 z m -18.20333,0.56445 -7.19667,-6.63222 c -0.70555,-0.70556 -2.25777,-0.28223 -4.37444,1.12888 -13.68778,2.54 -22.57778,3.81 -27.09334,3.81 -1.83444,-1.41111 -4.79777,-2.96333 -8.74888,-4.93888 -1.55223,-0.70556 -1.83445,-0.28223 -1.12889,1.12888 1.83444,1.12889 2.82222,2.96334 2.82222,5.50334 0,2.25778 -4.09222,7.62 -11.71222,16.51 -7.05556,8.46667 -15.24,16.65111 -24.69445,24.27111 -0.84667,1.55222 -0.42333,1.83444 1.12889,1.12889 7.62,-4.79778 15.38111,-10.58333 23.14222,-17.63889 7.62,7.05556 14.25223,13.68778 20.88445,18.76778 l 2.25778,1.69333 c -6.35,8.74889 -13.40556,16.65111 -21.59,24.13 -8.04334,7.33778 -16.08667,13.68778 -24.27112,18.76778 -0.98777,1.128889 -0.84666,1.693333 0.56445,1.693333 16.65111,-8.89 30.90333,-20.037773 43.03889,-33.584443 12.84111,-14.39334 24.41222,-31.89111 34.71333,-52.35223 2.54,-1.12888 3.38667,-2.25777 2.25778,-3.38666 z m -9.45444,0.56444 c -2.11667,6.63222 -5.50334,13.40556 -9.87778,20.46111 -4.09222,6.49112 -8.60778,13.68778 -13.82889,21.44889 0,-2.96333 -0.42334,-5.36222 -1.55222,-7.19666 -0.70556,-1.12889 -3.10445,-2.96334 -7.19667,-4.93889 l -14.95778,-7.19667 c 6.63222,-6.20889 12.98222,-13.26444 18.76778,-20.88444 10.01889,-1.12889 19.19111,-2.25778 27.65778,-3.38667 h -0.14111 c 1.55222,-0.28222 1.97555,0.28222 1.12889,1.69333 z" style="font-size:141.1111145px;stroke-width:0.00000003" id="path286" inkscape:connector-curvature="0"/>
                            </g>
                          </g>
                        </g>
                      </g>
                    </g>
                  </g>
                </g>
              </g>
            </g>
          </g>
        </g>
      </g>
    </g>
  </g>
</svg>