<?xml version="1.0" encoding="UTF-8" standalone="no"?>
<!-- Created with Inkscape (http://www.inkscape.org/) -->
<svg xmlns:dc="http://purl.org/dc/elements/1.1/" xmlns:cc="http://creativecommons.org/ns#" xmlns:rdf="http://www.w3.org/1999/02/22-rdf-syntax-ns#" xmlns:svg="http://www.w3.org/2000/svg" xmlns="http://www.w3.org/2000/svg" xmlns:sodipodi="http://sodipodi.sourceforge.net/DTD/sodipodi-0.dtd" xmlns:inkscape="http://www.inkscape.org/namespaces/inkscape" width="500" height="500" viewBox="0 0 132.29167 132.29167" version="1.1" id="svg8" inkscape:version="0.92.4 (5da689c313, 2019-01-14)" sodipodi:docname="Japanese_Katakana_kyokashotai_GO.svg">
  <defs id="defs2"/>
  <sodipodi:namedview id="base" pagecolor="#ffffff" bordercolor="#666666" borderopacity="1.0" inkscape:pageopacity="0.0" inkscape:pageshadow="2" inkscape:zoom="0.9899495" inkscape:cx="216.67629" inkscape:cy="344.69966" inkscape:document-units="mm" inkscape:current-layer="text110" showgrid="false" units="px" inkscape:window-width="1440" inkscape:window-height="837" inkscape:window-x="-8" inkscape:window-y="-8" inkscape:window-maximized="1"/>
  <metadata id="metadata5">
    <rdf:RDF>
      <cc:Work rdf:about="">
        <dc:format>image/svg+xml</dc:format>
        <dc:type rdf:resource="http://purl.org/dc/dcmitype/StillImage"/>
        <dc:title/>
      </cc:Work>
    </rdf:RDF>
  </metadata>
  <g inkscape:label="Layer 1" inkscape:groupmode="layer" id="layer1" transform="translate(0,-164.70835)">
    <g aria-label="リ" style="font-style:normal;font-variant:normal;font-weight:normal;font-stretch:normal;font-size:25.39999962px;line-height:1.25;font-family:MHGKyokashotaiTHK;-inkscape-font-specification:MHGKyokashotaiTHK;letter-spacing:0px;word-spacing:0px;fill:#000000;fill-opacity:1;stroke:none;stroke-width:0.26458332" id="text12">
      <g aria-label="イ" style="font-style:normal;font-variant:normal;font-weight:normal;font-stretch:normal;font-size:25.39999962px;line-height:1.25;font-family:MHGKyokashotaiTHK;-inkscape-font-specification:MHGKyokashotaiTHK;letter-spacing:0px;word-spacing:0px;fill:#000000;fill-opacity:1;stroke:none;stroke-width:0.07000434" id="text20">
        <g aria-label="ウ" style="font-style:normal;font-variant:normal;font-weight:normal;font-stretch:normal;font-size:25.39999962px;line-height:1.25;font-family:MHGKyokashotaiTHK;-inkscape-font-specification:MHGKyokashotaiTHK;letter-spacing:0px;word-spacing:0px;fill:#000000;fill-opacity:1;stroke:none;stroke-width:0.01852198" id="text36">
          <g aria-label="エ" style="font-style:normal;font-variant:normal;font-weight:normal;font-stretch:normal;font-size:25.39999962px;line-height:1.25;font-family:MHGKyokashotaiTHK;-inkscape-font-specification:MHGKyokashotaiTHK;letter-spacing:0px;word-spacing:0px;fill:#000000;fill-opacity:1;stroke:none;stroke-width:0.00490061" id="text52">
            <g aria-label="オ" style="font-style:normal;font-variant:normal;font-weight:normal;font-stretch:normal;font-size:25.39999962px;line-height:1.25;font-family:MHGKyokashotaiTHK;-inkscape-font-specification:MHGKyokashotaiTHK;letter-spacing:0px;word-spacing:0px;fill:#000000;fill-opacity:1;stroke:none;stroke-width:0.00129662" id="text65">
              <g aria-label="カ" style="font-style:normal;font-variant:normal;font-weight:normal;font-stretch:normal;font-size:25.39999962px;line-height:1.25;font-family:MHGKyokashotaiTHK;-inkscape-font-specification:MHGKyokashotaiTHK;letter-spacing:0px;word-spacing:0px;fill:#000000;fill-opacity:1;stroke:none;stroke-width:0.00034306" id="text3785">
                <g aria-label="キ" style="font-style:normal;font-variant:normal;font-weight:normal;font-stretch:normal;font-size:25.39999962px;line-height:1.25;font-family:MHGKyokashotaiTHK;-inkscape-font-specification:MHGKyokashotaiTHK;letter-spacing:0px;word-spacing:0px;fill:#000000;fill-opacity:1;stroke:none;stroke-width:0.00009077" id="text25">
                  <g aria-label="ク" style="font-style:normal;font-variant:normal;font-weight:normal;font-stretch:normal;font-size:25.39999962px;line-height:1.25;font-family:MHGKyokashotaiTHK;-inkscape-font-specification:MHGKyokashotaiTHK;letter-spacing:0px;word-spacing:0px;fill:#000000;fill-opacity:1;stroke:none;stroke-width:0.00002402" id="text41">
                    <g aria-label="ケ" style="font-style:normal;font-variant:normal;font-weight:normal;font-stretch:normal;font-size:25.39999962px;line-height:1.25;font-family:MHGKyokashotaiTHK;-inkscape-font-specification:MHGKyokashotaiTHK;letter-spacing:0px;word-spacing:0px;fill:#000000;fill-opacity:1;stroke:none;stroke-width:0.00000636" id="text57" transform="translate(-35.678743,99.375527)">
                      <g aria-label="ガ" style="font-style:normal;font-variant:normal;font-weight:normal;font-stretch:normal;font-size:141.1111145px;line-height:1.25;font-family:MHGKyokashotaiTHK;-inkscape-font-specification:MHGKyokashotaiTHK;letter-spacing:0px;word-spacing:0px;fill:#000000;fill-opacity:1;stroke:none;stroke-width:0.00000168" id="text90" transform="translate(-58.409104,85.870703)">
                        <g aria-label="ギ" style="font-style:normal;font-variant:normal;font-weight:normal;font-stretch:normal;font-size:25.39999962px;line-height:1.25;font-family:MHGKyokashotaiTHK;-inkscape-font-specification:MHGKyokashotaiTHK;letter-spacing:0px;word-spacing:0px;fill:#000000;fill-opacity:1;stroke:none;stroke-width:0.00000044" id="text110" transform="translate(-44.156081,83.282783)">
                          <g aria-label="ゴ" style="font-style:normal;font-variant:normal;font-weight:normal;font-stretch:normal;font-size:25.39999962px;line-height:1.25;font-family:MHGKyokashotaiTHK;-inkscape-font-specification:MHGKyokashotaiTHK;letter-spacing:0px;word-spacing:0px;fill:#000000;fill-opacity:1;stroke:none;stroke-width:0.00000012" id="text160" transform="translate(-35.829079,95.277606)">
                            <path d="m 289.34305,-167.38355 c 0,-3.24555 -0.84666,-5.92666 -2.68111,-7.76111 -2.25778,-1.83444 -6.06778,-3.38666 -11.57111,-4.93889 -1.55222,0 -1.69333,0.42334 -0.56444,1.12889 3.95111,2.25778 7.62,6.49111 11.00666,12.7 0.70556,1.12889 1.41111,1.69334 2.25778,1.69334 0.98778,0 1.55222,-0.98778 1.55222,-2.82223 z m -8.74889,8.89 c 0,-3.38666 -0.98777,-5.92666 -2.82222,-7.76111 -2.11666,-1.97555 -6.06778,-3.52778 -11.57111,-4.93889 -1.41111,0 -1.69333,0.28223 -0.56444,1.12889 4.09222,2.11667 7.76111,6.35 11.00666,12.55889 0.84667,1.12889 1.55223,1.69334 2.25778,1.69334 1.12889,0 1.69333,-0.84667 1.69333,-2.68112 z m -5.50333,7.62 c -5.22111,-3.95111 -8.74889,-6.06777 -10.58333,-6.06777 -0.28222,0 -1.41111,0.56444 -3.24556,1.69333 -19.89667,2.25778 -39.65222,5.08 -59.54889,8.32556 -2.54,0.42333 -5.50333,0 -8.74889,-1.12889 -1.55222,-0.70556 -1.83444,-0.42334 -1.12889,1.12889 1.83445,2.54 4.51556,4.93888 8.18445,7.05555 1.55222,-0.28222 2.96333,-0.70555 4.51555,-0.98778 12.27667,-2.68111 23.42445,-5.64444 34.14889,-7.19666 10.58334,-1.41111 18.20334,-2.25778 22.57778,-2.25778 2.25778,0 3.24556,0.98778 2.82222,2.82222 l -11.57111,48.542224 c -13.97,0.987778 -25.25889,2.257778 -33.72555,3.810001 -5.78556,0.987777 -12.13556,2.257777 -18.76778,3.245555 -3.24556,0.564445 -5.78556,0.423334 -7.62,0 -1.55222,0 -1.69334,0.564445 -0.56445,1.693334 2.96334,1.834444 5.50334,3.245555 7.76111,4.374444 0.70556,-0.282222 2.25778,-0.846667 4.93889,-1.552222 13.97,-4.092222 29.21,-6.067778 45.72,-6.067778 3.66889,0 7.19667,0.141111 10.44223,0.423333 2.54,-0.705555 3.10444,-1.975555 1.69333,-3.81 -1.12889,-0.705555 -2.82222,-1.27 -4.93889,-1.693333 l 15.38111,-48.965558 c 2.96334,-0.70555 3.66889,-1.83444 2.25778,-3.38667 z" style="font-size:141.1111145px;stroke-width:0.00000012" id="path162" inkscape:connector-curvature="0"/>
                          </g>
                        </g>
                      </g>
                    </g>
                  </g>
                </g>
              </g>
            </g>
          </g>
        </g>
      </g>
    </g>
  </g>
</svg>