<?xml version="1.0" encoding="UTF-8" standalone="no"?>
<!-- Created with Inkscape (http://www.inkscape.org/) -->
<svg xmlns:dc="http://purl.org/dc/elements/1.1/" xmlns:cc="http://creativecommons.org/ns#" xmlns:rdf="http://www.w3.org/1999/02/22-rdf-syntax-ns#" xmlns:svg="http://www.w3.org/2000/svg" xmlns="http://www.w3.org/2000/svg" xmlns:sodipodi="http://sodipodi.sourceforge.net/DTD/sodipodi-0.dtd" xmlns:inkscape="http://www.inkscape.org/namespaces/inkscape" width="500" height="500" viewBox="0 0 132.29167 132.29167" version="1.1" id="svg8" inkscape:version="0.92.4 (5da689c313, 2019-01-14)" sodipodi:docname="Japanese_Katakana_kyokashotai_ZA.svg">
  <defs id="defs2"/>
  <sodipodi:namedview id="base" pagecolor="#ffffff" bordercolor="#666666" borderopacity="1.0" inkscape:pageopacity="0.0" inkscape:pageshadow="2" inkscape:zoom="0.9899495" inkscape:cx="216.67629" inkscape:cy="544.70986" inkscape:document-units="mm" inkscape:current-layer="text110" showgrid="false" units="px" inkscape:window-width="1440" inkscape:window-height="837" inkscape:window-x="-8" inkscape:window-y="-8" inkscape:window-maximized="1"/>
  <metadata id="metadata5">
    <rdf:RDF>
      <cc:Work rdf:about="">
        <dc:format>image/svg+xml</dc:format>
        <dc:type rdf:resource="http://purl.org/dc/dcmitype/StillImage"/>
        <dc:title/>
      </cc:Work>
    </rdf:RDF>
  </metadata>
  <g inkscape:label="Layer 1" inkscape:groupmode="layer" id="layer1" transform="translate(0,-164.70835)">
    <g aria-label="リ" style="font-style:normal;font-variant:normal;font-weight:normal;font-stretch:normal;font-size:25.39999962px;line-height:1.25;font-family:MHGKyokashotaiTHK;-inkscape-font-specification:MHGKyokashotaiTHK;letter-spacing:0px;word-spacing:0px;fill:#000000;fill-opacity:1;stroke:none;stroke-width:0.26458332" id="text12">
      <g aria-label="イ" style="font-style:normal;font-variant:normal;font-weight:normal;font-stretch:normal;font-size:25.39999962px;line-height:1.25;font-family:MHGKyokashotaiTHK;-inkscape-font-specification:MHGKyokashotaiTHK;letter-spacing:0px;word-spacing:0px;fill:#000000;fill-opacity:1;stroke:none;stroke-width:0.07000434" id="text20">
        <g aria-label="ウ" style="font-style:normal;font-variant:normal;font-weight:normal;font-stretch:normal;font-size:25.39999962px;line-height:1.25;font-family:MHGKyokashotaiTHK;-inkscape-font-specification:MHGKyokashotaiTHK;letter-spacing:0px;word-spacing:0px;fill:#000000;fill-opacity:1;stroke:none;stroke-width:0.01852198" id="text36">
          <g aria-label="エ" style="font-style:normal;font-variant:normal;font-weight:normal;font-stretch:normal;font-size:25.39999962px;line-height:1.25;font-family:MHGKyokashotaiTHK;-inkscape-font-specification:MHGKyokashotaiTHK;letter-spacing:0px;word-spacing:0px;fill:#000000;fill-opacity:1;stroke:none;stroke-width:0.00490061" id="text52">
            <g aria-label="オ" style="font-style:normal;font-variant:normal;font-weight:normal;font-stretch:normal;font-size:25.39999962px;line-height:1.25;font-family:MHGKyokashotaiTHK;-inkscape-font-specification:MHGKyokashotaiTHK;letter-spacing:0px;word-spacing:0px;fill:#000000;fill-opacity:1;stroke:none;stroke-width:0.00129662" id="text65">
              <g aria-label="カ" style="font-style:normal;font-variant:normal;font-weight:normal;font-stretch:normal;font-size:25.39999962px;line-height:1.25;font-family:MHGKyokashotaiTHK;-inkscape-font-specification:MHGKyokashotaiTHK;letter-spacing:0px;word-spacing:0px;fill:#000000;fill-opacity:1;stroke:none;stroke-width:0.00034306" id="text3785">
                <g aria-label="キ" style="font-style:normal;font-variant:normal;font-weight:normal;font-stretch:normal;font-size:25.39999962px;line-height:1.25;font-family:MHGKyokashotaiTHK;-inkscape-font-specification:MHGKyokashotaiTHK;letter-spacing:0px;word-spacing:0px;fill:#000000;fill-opacity:1;stroke:none;stroke-width:0.00009077" id="text25">
                  <g aria-label="ク" style="font-style:normal;font-variant:normal;font-weight:normal;font-stretch:normal;font-size:25.39999962px;line-height:1.25;font-family:MHGKyokashotaiTHK;-inkscape-font-specification:MHGKyokashotaiTHK;letter-spacing:0px;word-spacing:0px;fill:#000000;fill-opacity:1;stroke:none;stroke-width:0.00002402" id="text41">
                    <g aria-label="ケ" style="font-style:normal;font-variant:normal;font-weight:normal;font-stretch:normal;font-size:25.39999962px;line-height:1.25;font-family:MHGKyokashotaiTHK;-inkscape-font-specification:MHGKyokashotaiTHK;letter-spacing:0px;word-spacing:0px;fill:#000000;fill-opacity:1;stroke:none;stroke-width:0.00000636" id="text57" transform="translate(-35.678743,99.375527)">
                      <g aria-label="ガ" style="font-style:normal;font-variant:normal;font-weight:normal;font-stretch:normal;font-size:141.1111145px;line-height:1.25;font-family:MHGKyokashotaiTHK;-inkscape-font-specification:MHGKyokashotaiTHK;letter-spacing:0px;word-spacing:0px;fill:#000000;fill-opacity:1;stroke:none;stroke-width:0.00000168" id="text90" transform="translate(-58.409104,85.870703)">
                        <g aria-label="ギ" style="font-style:normal;font-variant:normal;font-weight:normal;font-stretch:normal;font-size:25.39999962px;line-height:1.25;font-family:MHGKyokashotaiTHK;-inkscape-font-specification:MHGKyokashotaiTHK;letter-spacing:0px;word-spacing:0px;fill:#000000;fill-opacity:1;stroke:none;stroke-width:0.00000044" id="text110" transform="translate(-44.156081,83.282783)">
                          <g aria-label="ザ" style="font-style:normal;font-variant:normal;font-weight:normal;font-stretch:normal;font-size:25.39999962px;line-height:1.25;font-family:MHGKyokashotaiTHK;-inkscape-font-specification:MHGKyokashotaiTHK;letter-spacing:0px;word-spacing:0px;fill:#000000;fill-opacity:1;stroke:none;stroke-width:0.00000012" id="text206" transform="translate(-48.765729,98.490266)">
                            <path d="m 309.38827,-176.4109 c 0,-3.38667 -0.84667,-5.92667 -2.68112,-7.76111 -2.25777,-1.83445 -6.06777,-3.38667 -11.57111,-4.93889 -1.55222,0 -1.69333,0.42333 -0.56444,1.12889 3.95111,2.25778 7.62,6.35 11.00667,12.7 0.70555,1.12889 1.41111,1.55222 2.25777,1.55222 0.98778,0 1.55223,-0.84667 1.55223,-2.68111 z m -11.57112,6.63222 c 0,-3.38666 -0.84666,-5.92666 -2.68111,-7.76111 -2.25778,-1.83444 -6.06778,-3.52778 -11.57111,-4.93889 -1.55222,0 -1.69333,0.42334 -0.56444,1.12889 3.95111,2.11667 7.62,6.35 11.00666,12.7 0.70556,0.98778 1.41111,1.55222 2.25778,1.55222 0.98778,0 1.55222,-0.84666 1.55222,-2.68111 z m 6.06778,19.33223 c -4.79778,-3.38667 -9.31333,-5.36223 -13.68778,-6.06778 l -5.08,1.55222 c -3.95111,0.42333 -8.18444,0.56444 -12.55889,0.56444 l 0.42334,-19.75555 c 1.12889,-2.25778 1.41111,-3.81 0.56444,-4.51556 -3.24555,-2.96333 -6.35,-4.79778 -9.31333,-5.50333 -1.83445,0 -2.25778,0.56444 -1.12889,1.69333 2.54,1.83445 3.81,4.09222 3.81,6.63222 l -0.42333,22.01334 c -12.13556,1.12889 -23.28334,2.39889 -33.16112,3.81 v -16.51 c 1.55223,-1.41111 1.69334,-2.68111 0.56445,-3.81 -2.96333,-2.96334 -5.92667,-4.79778 -8.74889,-5.50334 -1.83444,-0.70555 -2.39889,-0.42333 -1.69333,1.12889 2.96333,2.11667 4.37444,4.79778 4.37444,7.62 v 17.63889 c -7.76111,1.55223 -15.24,2.96334 -22.57778,4.51556 -1.55222,0.28222 -2.82222,0.56444 -3.81,0.56444 -1.12889,0 -2.68111,-0.28222 -4.51555,-0.56444 0,0.28222 0.42333,0.84667 1.12889,1.55222 0.70555,0.84667 3.10444,2.25778 7.19666,4.51556 1.12889,0 2.54,-0.56445 4.37445,-1.69334 5.92666,-1.55222 11.99444,-2.82222 18.20333,-3.95111 l 0.56445,13.26445 c 0,1.55222 -0.14112,3.38666 -0.56445,5.50333 -0.28222,1.12889 0,3.10445 1.12889,6.06778 1.12889,2.96333 2.39889,4.51555 3.81,4.51555 0.70556,0 1.12889,-1.41111 1.12889,-3.95111 l -0.56445,-26.38778 c 10.30112,-1.55222 21.16667,-2.68111 32.59667,-3.38666 -2.25778,27.65778 -10.16,48.965555 -23.70667,63.923333 -0.84666,1.834444 -0.28222,2.257777 1.55223,1.128889 9.59555,-9.595556 16.22778,-18.767782 19.89666,-27.516672 3.66889,-8.89 6.49112,-21.44889 8.32556,-38.1 4.65667,0 9.73667,0.28223 14.81667,0.56445 5.22111,0.42333 10.30111,0.98778 15.38111,1.69333 2.68111,0 3.24555,-1.12889 1.69333,-3.24555 z" style="font-size:141.1111145px;stroke-width:0.00000012" id="path208" inkscape:connector-curvature="0"/>
                          </g>
                        </g>
                      </g>
                    </g>
                  </g>
                </g>
              </g>
            </g>
          </g>
        </g>
      </g>
    </g>
  </g>
</svg>